/* XPM */
static char *result[] = {
/* columns rows colors chars-per-pixel */
"64 64 256 2 ",
"   c #190E0E",
".  c #090C18",
"X  c #140B1B",
"o  c #0A121C",
"O  c #2A0B04",
"+  c #380703",
"@  c #371302",
"#  c #2B071B",
"$  c #360619",
"%  c #2A1211",
"&  c #3C2713",
"*  c #0D1624",
"=  c #171627",
"-  c #161029",
";  c #270C25",
":  c #350926",
">  c #3C0C25",
",  c #3C0C2A",
"<  c #25142A",
"1  c #381326",
"2  c #3D112B",
"3  c #281933",
"4  c #351633",
"5  c #1C2235",
"6  c #272235",
"7  c #372F31",
"8  c #362838",
"9  c #450505",
"0  c #4C0200",
"q  c #530101",
"w  c #570706",
"e  c #5B0001",
"r  c #4B1503",
"t  c #46081A",
"y  c #550119",
"u  c #45131B",
"i  c #4B121D",
"p  c #51141B",
"a  c #650100",
"s  c #67031B",
"d  c #770319",
"f  c #701210",
"g  c #4F2B15",
"h  c #7B3712",
"j  c #430C25",
"k  c #490B27",
"l  c #430D2A",
"z  c #530B26",
"x  c #441225",
"c  c #4A1222",
"v  c #44122A",
"b  c #4B112B",
"n  c #55172A",
"m  c #471C37",
"M  c #5A1933",
"N  c #690826",
"B  c #770826",
"V  c #681836",
"C  c #711630",
"Z  c #4A2C2E",
"A  c #58263A",
"S  c #77282A",
"D  c #65253A",
"F  c #712E30",
"G  c #544639",
"H  c #755339",
"J  c #332B43",
"K  c #373847",
"L  c #30344B",
"P  c #552742",
"I  c #47354B",
"U  c #662745",
"Y  c #762C46",
"T  c #3C4151",
"R  c #4C495A",
"E  c #694B52",
"W  c #545569",
"Q  c #675D73",
"!  c #6D6A78",
"~  c #940B0D",
"^  c #890318",
"/  c #9A0A19",
"(  c #AB0809",
")  c #A50615",
"_  c #AF1219",
"`  c #B81819",
"'  c #992317",
"]  c #840925",
"[  c #891727",
"{  c #971728",
"}  c #911230",
"|  c #AA1628",
" . c #8A3A29",
".. c #8F2E31",
"X. c #B12F30",
"o. c #CD2A19",
"O. c #DB3419",
"+. c #D02720",
"@. c #D73824",
"#. c #CD2E31",
"$. c #D8383A",
"%. c #E43A26",
"&. c #E6383A",
"*. c #934F36",
"=. c #B34F32",
"-. c #BC6237",
";. c #DB511C",
":. c #CF4C2F",
">. c #C65E32",
",. c #D85639",
"<. c #E84827",
"1. c #EF532F",
"2. c #E64638",
"3. c #E75A38",
"4. c #FB5A3A",
"5. c #C8612E",
"6. c #CB6331",
"7. c #C76338",
"8. c #D56B35",
"9. c #D66837",
"0. c #DD7839",
"q. c #EE6D34",
"w. c #F7693B",
"e. c #E4793D",
"r. c #962E46",
"t. c #B22D4A",
"y. c #CD3246",
"u. c #C63A47",
"i. c #E03D52",
"p. c #8E4D4C",
"a. c #B0554C",
"s. c #B16C53",
"d. c #9D6768",
"f. c #D1534A",
"g. c #EA4F48",
"h. c #FB5846",
"j. c #D07551",
"k. c #E76845",
"l. c #FB6A44",
"z. c #E77847",
"x. c #EC7D45",
"c. c #FB7845",
"v. c #F76C55",
"b. c #E57758",
"n. c #CF7B6D",
"m. c #ED6F65",
"M. c #E6843D",
"N. c #9F8977",
"B. c #B28E72",
"V. c #DB824F",
"C. c #ED8243",
"Z. c #EB8547",
"A. c #EC8C43",
"S. c #F28C46",
"D. c #F08248",
"F. c #F28D49",
"G. c #EC9448",
"H. c #F3934C",
"J. c #F6994B",
"K. c #F49B4D",
"L. c #E98758",
"P. c #F88758",
"I. c #E79459",
"U. c #F69B52",
"Y. c #F99B53",
"T. c #F89759",
"R. c #F2A14D",
"E. c #FBA34D",
"W. c #E7A256",
"Q. c #F5A554",
"!. c #FCA552",
"~. c #F9A758",
"^. c #FDAB5D",
"/. c #FDB25E",
"(. c #D28E6E",
"). c #D89568",
"_. c #E78B63",
"`. c #F78966",
"'. c #E5976A",
"]. c #F99A66",
"[. c #EA9B75",
"{. c #F99773",
"}. c #DCA97B",
"|. c #EAA66A",
" X c #FAA663",
".X c #FDAD62",
"XX c #FEB463",
"oX c #FCBA65",
"OX c #F5B56B",
"+X c #FEB669",
"@X c #FCBB6B",
"#X c #E9A579",
"$X c #FBA878",
"%X c #FBB776",
"&X c #F7BD73",
"*X c #FABE72",
"=X c #FEC26D",
"-X c #FDC373",
";X c #FCC776",
":X c #FCC479",
">X c #FFCB7D",
",X c #FFD17E",
"<X c #767B89",
"1X c #717A8C",
"2X c #9E7B89",
"3X c #7B8492",
"4X c #8D8896",
"5X c #B7918C",
"6X c #B3A790",
"7X c #A6A0A9",
"8X c #D19285",
"9X c #F69E86",
"0X c #D2AE94",
"qX c #EAAF8C",
"wX c #FBA982",
"eX c #F9B787",
"rX c #FDB893",
"tX c #D5B5A8",
"yX c #EDB8A1",
"uX c #FECD82",
"iX c #FDC885",
"pX c #FFD284",
"aX c #FCDA86",
"sX c #FED48A",
"dX c #FDDA8B",
"fX c #E5C59C",
"gX c #F9C99A",
"hX c #FED692",
"jX c #FED994",
"kX c #F7DA9A",
"lX c #FEDD9D",
"zX c #FACDA2",
"xX c #F4CCA9",
"cX c #E9D2AA",
"vX c #FCD5A7",
"bX c #F1D0B3",
"nX c #FEE5A8",
"mX c #FEE6AC",
"MX c #FEE6B4",
"NX c #FEECB4",
"BX c #FEEDBA",
"VX c #FEF1BE",
"CX c #BBC4CB",
"ZX c #D1C9CF",
"AX c #EFD6CC",
"SX c #FADDC4",
"DX c #FDE3C5",
"FX c #FFEDC3",
"GX c #FFE5CA",
"HX c #FFEACD",
"JX c #FEF3C4",
"KX c #FFF3CB",
"LX c #FFEED3",
"PX c #FDE7D9",
"IX c #FEF3D4",
"UX c #FFF5E4",
/* pixels */
"K.K.H.K.J.J.U.K.T.R.Y.Y.K.Y.Y.Y.!.Y.Y.Y.Y.Q.Y.Q.Q.Q.n.=X!.!.!.~.~.> T.Y.U.U.U.U.Y.J.Y.Y.H.Y.Y.Y.Y.Y.J.Y.U.U.K.K.Y.U.U., U.K.U.U.",
"x.z.z.z.e.z.z.e.b.x.x.x.x.x.x.F.D.D.D.D.x.C.C.x.D.D.s.C.C.x.C.x.x.j z.x.Z.x.x.x.x.x.x.x.x.x.C.M.e.D.D.M.C.x.z.C.x.x.C., z.z.z.z.",
"HXKXGXGXFXDXDXDXDXDX5XxXxXxXxXxXgXvXvX2XSXSXSXSXSXMXDXDXDXDXGXGXGXGXGXGXGXn.xXxXvXvXzXzXA SXSXSXSXGX(.AXSXDXDXDXGXDXGXGXGXFXDXHX",
"S S S S n S S S S S Y @X . . . . . . .E *X..S S S C S S S S S S S S S S F E Y. . . . .*.M :X.X.X.X+Xn.uXS S F S S S S F S S S S ",
"dXsXsXjXjXjXjXjXjXjX#X-XH.J.H.Y.Y.Y.!.V.;XjXhXhXhXhXsXsXsXsXsXsXhXsXhXhXjX#XL.G.H.H.Y.Y.Y hXsXsXsXsX'.kXdXjXsXsXhXsXdX:XjXhXjXhX",
"sXsXsXsXsXsXsXsXsXpX[.^.H.H.S.H.H.S.S.z.pXpXpXpXuXsXsXpXsXuXpXpXpXaXsXuXsX'.H.H.S.S.D.S. .+X+XoX+X+X_.iXpXuXpXsXsXsXsXsXsXpXuXsX",
"c i c c c i c i c i j u p p p p p p p x c c c i c i i i u i c u c c i i i > i k i i i i 2 b k x k u j c i i i i i c c i c c x c ",
"pXpXpX,X#XsXaX,X>XpXpXpXpXaX,X,X,X,X,X,X,X,X,X>X2 pXpXpXuXpX(.pXaXsXaX>X>X,X,X>XpXpXpXpXpXsXsXiXvXsXsXsXsXpXpXpX,X,X>X;XpX,XpXpX",
"@XQ.Q.@XOX0.0.e.M.A.K.=X=X@X@X@X0.0.0.0.e.0.0.0.1 M.M.0.0.0.-.M.M.A.G.G.+X-X-X=X-X/.=XQ.;X-X-X-XgX;X-X=X@XoXXX0.0.e.e.M.0.0.0.0.",
"Q.Q.XX^.Q.:X=X-X=X=XK.Q.R.Q.Q.oXoX@XoX@XoXoXoXoX1 =X/.=X=XoXW.;X-X@X@X@XoX+XoX@XoX~.Q.Q.Y.Q.!.~.rX=XA.A.@X@XoXoXoXoXoXoX@X=X=X=X",
"@X@X@X*XOX%X@X@X@XK.^.XXoXXXoXoXoXoXoXoXoXoXoXXX1 oX/././.oXB.B.B.B.@XeX+X+X+X@XoX~./.oXXXoXoX+XeX/.oXoXoXoXoXoXoXoXXXoX/.oX/.=X",
"> j l j l , j l j j l j j j j j j k j x k j j j 4 >       7 G G % & Z     O E E k k v k l j j > , j l > j v j c x x x k x j > j ",
".XoX+XXXoXXXoXXX/././.XX.X/./.oXXXXX/.(.dXoX/.G & 7 UXUXIXtX6X@ VXVXqXqX9X*.9 + % gX%XBXmX*X@X+XoX+XoXXX@X, @XoXoXoXXXXXoXXXXXoX",
"mXmXmXmXnXmXmXnXmXmXmXmXmXmXmXnXmXnXmX#XNXB.Z 5XAXGXLXtXtXtX@ 0XqX&X%X].V.b.=.n.p.+ tXAXMXmXmXmXmXmXmXmXmX, sX>XmXmXmXmXmXnXmXmX",
"@X@XoX+X@X@X@X@X@X@X@X*X*X&X@X@X@X@XOXW.*.B.UXO 6XtX0XtX@ @ fXyX#X).L.V.L.T.T.T.b.b.*.0 tXgX&X@X@X@X@X@X@X: OX+X+X+X+X@X@X@XoX@X",
"^.^.^..X^./..X.X.X.X.X.X.X.X.X.XXXOXW.s.cXZXAXH O h G O r g g s.(.eX_.].I. Xx.w.k.k.X.*.w d.eXXX X.X.X X X: ^.^.^.^..X.X^..X^.^.",
"vXzXzXzXzXzXzXgXzXzXxXgXzXzXgXzXvX(.*.s.bXAXAXcXyX0X@ 0XH H H + @ + s.'.#X-.z.f.`.,.k.f.X.9 tXyXPXHXHXGXGXGXGXFX: vXzX> zXlXzXvX",
"-.>.5.>.Z.oXXXoXXX7.>.>.>.>.5.=.*.*.(.(.+ g g @ g @ Z tXfXNX0XbXxXfX*.q q 0 a -.k.#.k.g.$.X.9 ZXSXz.e.e.e.e.e.e.: A.G., =.=.>.=.",
"C.S.S.S.S.F.F.H.F.F.F.A.A.F.F.H p.+ + $ @ @ O @ @ @ O % & N.tXqX[.{.'.).'.9 9 0 q =.a.b.g.o.' + 6XeX.XoX@X9.8.9.4 U.H., 5.5.5.8.",
"9.9.9.9.9.9.9.9.9.9.9.9.9.9.9.u O AXAXPXxX8X0XO 8X0XtXPXUXUX+ 0 n.[.gXrXwXeXqX[.j._.q e :.o.m. .A rXT.Y.Y.~.T.T.: 9.9.: 8.8.9.9.",
"vXvXvXvX0XLXHXHXKXIXHXKXKXKXZ tXUXbXfXJXmXvX(.s.qX%X'.rXfXfXMX}.9 g B.vXrX`.wXj.D.P.,.#.' a [ S d.5 7XLXLXHXLXLXLXLXLXLXHXLXLXLX",
"~.~.~.~._.vX@X+XXXXX+XoXoXZ F yX(.MXqX#X).).w eXhXL.`.I.rXmX).#X}.+ + 8X[.{.rX$Xx.;.v.,.X.X.a C A 4XX iXXXOXXXXXXXXXoXXXoXXXXXoX",
"~.~.~.~.W.vX+XXX.XXX/.^.OX(.(._._.{.I.z.j.w j.].`.P.P.].wXvX_.gX'.[.$Xh r ).z.P.P.Y.q.w.h.h.f...$ 4X4XnX@XOXoXoXXXXXOX.XOX.X.X.X",
"Q.Q.Q.Y.I.OX^.XXXXXXXX/.w s.`.`.L._.8.'.p.F ).$XL.].`.`.L._.wX{._.eX_.L.r h ].Y.e.w.w.w.4.@.` { V % W o %XXX.X.X.X.X.XXXXX.XXXXX",
"KXKXKXKXKXKXJXJXKXJX8XE *.rXk.z._.s.s.q $ d.B.(.#X$Xk.P.`.wX$XD.`.L.$X{.j.q *.V. X;.w.l.O.l.` { C u < 4XCXKXKXJX4 KXKXKXKXJXKXJX",
"oXoXXXoXoXoX@X@X@XoX}.Z  .X.,.b.0 0 w d.$ + 9 + + #Xk.P.z.z.c.c.c.eX`.%X$Xj.e 9 j.k.:.h.h.+./ | [ C 5Xo ZX+XoXoX4 oX.XXXoXoXoX+X",
"-X-X@XoX=XoX@X;X*X@X#XO ..$.a e L.b.(.0 rXwXj.MXr @ s.k.;.l.3.q.l.3.D.L.%Xb.m.' a b.@.&.%.%.( ` y.[ n 2Xo iX-X-X: %X+XoX@X@X@X-X",
"^.^..X^.^.^.~.~.^.^.).c r.{ a {.3.k.a.e f.k.b.j.rXrXq b.w.c.q.w.3.3.q. X$Xk.h.m.a  .m.g.2.%.2.( y./ k 5XX zX^./.;  X.X.X^.XX^..X",
"sX: jXkXjXjXjXjXhXjXO n p.0 m.b.3.,.s.e 2.v.;.k.,.b.j.e v.3.q.c.c.w.q.;.;.v.3.v.b.q X.m.2.$.) #.| t.z m = * jXjXhXjXjX: FXJXFXVX",
"Z.: C.0.oX@X@X@X@X@X$ Z + s.k.v.%.k.a.a <.<.4.l.`.k.=.0 =.v.l.1.c.M.q.1.l.4.@.:.k.f.w a.X.g./ ) y.} U 4 3X= oXoXoXoX^.: -X.X^.^.",
"G.: U.U.K.H.Y.J.Y.J.O p e j.3.4.1.v.' X.@.%.h.<.<.h.k.=.a X.{.<.w.1.w.<.1.4.o.,.@.:.e q | _ #.] ^ r.M 3 1X. #XZ./.~.OX: OX~.~.~.",
"z.: k.0.0.e.e.k.e.k.# $ [ ` :.h.1.2.a =.:.2.O.<.<.1.k.#.e =.g.l.w.4.4.4.1.<.,.@.o.$...0 =.^ y.{ } N > I 3X5 #XF.F.G.H.1  XU.U.Q.",
"JXJXJXJXJXJXJXJXKXKX  + X.g.2.@.h.$.q f.@.%.h.O.4.4.1.:.s f.v.O.%.O.4.4.4.O.2.g.+.h.t.w y f d t.B C P I <Xo IXKXnXJXJXJXJXKXJXJX",
"-X@X-X@X-X=X*X@X=X-X% $ | ( #.&.+.X.e a.g.%.&.o.O.%.h.#.q a.g.4.%.O.4.O.h.O.&.&.&.| / } 9 i N r.r.V $ P <Xo iX=X&X@X*X-X*X@X=X@X",
"!.!.E.!.E.!.Q.!.Q.!.  + t.i.i.+.` f.q a.#.g.#.h.o.%.h.| w 9 _ g.%.o.4.%.+.o.o.( _ i.| B n $ N } [ D # < <Xo !.!.!.!.!.E.!.!.!.!.",
"@X+X@X+X+XoX+XXXoXoXX # ..| | y.) / e [ a._ ` &.( &.+.f.+ + X.#.&.+.&.` ( $.$.#.) ) ^ r.D + Y y z U # ! o * XXoXoXoXoXXXXXXXXXoX",
"lXdXjXjXqXFXFXJXVXFXvX1 s ^ | | / | e [ X.) ) +.&.+.&.| 9 + u.#.#.#.( $.` ( ` X.t.| ] B z j U V b : I 3 . HXBXJXJXFXVX> jXdXdXdX",
"=X^./.@X|.lXiXpXuXsXsX% t s ..y.y.t.y r.X./ #.y.( $.` t.t 9 / ) _ y.#.) _ u./ / t.} d N M $ A : , ; X L * sXuXsXuXsXuX2 ^. X X.X",
"@X=X=XQ.W.uXXX.X.X^.^.4 > p B d / } y r.[ | y.) y.#._ f.+ 0 u.) y.) y.| ) ^ { t.B ] r.N b l # P 3 X 2X1XtXoX.XXXXX.XXX$ ;X;X=X=X",
"@X@X@X-X+XvXjXjXjXjXjX7 % $ V s t...9 r.t.| ~ u.#./ #.[ a.q { u.) i.^ { y.^ ^ ] t.r.C V b : ; ; < J 3X* cXkXsXsXsXsXuX# ;X;X=X=X",
"2 v > > , l l l l l , P = E x V N C N Y ..d ~ u.{ / { ....e B [ } t.] ] ^ X.} B N z Y b m 1 # Z 5 5 ! * x k j , 2 > > > , j j j ",
"=.=.=.=.=.M.e.0.F.K.p.XXs.R 2 > n M b z N B ] ^ X.} ] } [ y ....] ] B B } t.B B N z : l : 1 ; 6 = T 4XU.H.H.K.Y.: 6.K.K.K.K.5.5.",
"A.H.F.H.F.F.F.F.G.A.z.F.S.o I 1 : P P > Y N ] t.B d d B C C y V C s } ..[ N C y V k : # 1 m Z = W L o S.H.H.H.J.: H.Z.Z.C.C.Z.S.",
"A.A.A.F.F.F.S.D.0.z.7.A.S.).. # ; 3 I : k z ] } N C B C C Y $ V n Y y z C V z $ $ P ; 4 < 8 = = 3X. (.A.F.A.A.A.: F.A.F.A.S.A.A.",
", j j v l l l l l l , 2 x m U 8 I 4 I J P k N C Y z y C M V > : V M k V $ V P : , m - 3 - J J X o E v j c k x k , > j > j > v b ",
"~.Q.oXoX).jX~.^././.K.G.R.R.Q.B.W J Q I ; m U y j U U M t D U : P $ P : # P : ; ; < 3 - 5 5 I = N.}.XXXX/././.XXXXoX/.1 =X=XoXoX",
"@XK.H.*XOXuX;X>X;X;X-X-X=XR.-X-X- 3 Q W = 7 # $ # P ; A b # P : : m M m < X ; 4 - J 3 3 1X5 * K vXlXlXnXlXlXvXjXlXlXlX: C.M.M.M.",
"@X@X;XuXOXiX@X-X*X-X@X=X=X;X;X;X>X5 T 5 I . 8 # ; ; < Z ; 1 4 4 ; # P 3 - * 3 < K R I J L 1X* gXsXsXsXpXsXsXsXsXsXsXsX$ @X@XoX=X",
"T.~.T.~._.].U.K.Y.Y.T.H.T.Y.T.Y.Y.Y.E ! R = = 6 7 J < ; ; ; < ; ; - - - L T 5 L 5 L L 3X! K  X].]. X~.].^.].^.~.T. X X> ~.!.Y.U.",
"KXJXJXFXJXBXVXJXFXBX8XBXBXBXM JXJXKXKXKXo ! ! = 8 J - - J < X 4 - L - - 5 W L * 5 W 3Xo T JXVXMXHXJXJXJXJXJXJXJXJXJXJXJXJXJXJXBX",
"-X*X*X@X*X*X*X*X*X@X8XmX+XOXZ hX@X+X@X*X=XR . R T L Q < K W 5 Q R J - - W W 5 Q 1X* 7XfX=X=X-X%XDX*X@X@X@X@X@X@X*X-X@X*X*X@X@X@X",
"!.E.E.!.E.E.E.E.E.!.#XlX.X^.A iXE.!.!.!.!.!.K   X R 8 R 8 = 5 = 3 R W L * 1X3XT * L E.E.E.R.E. XMX!.E.!.E.E.E.E.E.E.E.E.E.E.E.!.",
"%X@X@X@X@X*X@X@X+XoX_.+XXX+XD XXoXoXoX@X@X+XoX.X&X6Xo o * R ! W W <X! o o o 0XqX@XoX+X@X@X@X@X%X$X+XXX.X.X+X@X@X+X@X@X+XoX+X.XXX",
";X> sXjXsXdXdXjXjXjXdXsXsXjXsXsXdXaXsXs.sXsXsXsXhXhXjXkXkX0X6X6X7X6XfXjXdXdXdXdXdXdXpXdXdXsXsXdXdXsXd.sXdXsXdXsXdXdXsXdXdXdXdXaX",
"=., 9.8.8.8.8.8.6.6.6.6.6.6.6.8.8.6.6.a.6.6.5.6.6.6.5.e.M.0.0.8.8.8.6.6.6.8.8.8.6.6.5.0.0.8.8.6.6.6.a.U.6.>.>.6.>.>.6.>.>.6.>.5.",
"b , b v b l v v , j , x k u 2 x v v x , v v v v v 2 2 j 1 1 x j c x x 1 x 1 > 2 , 2 2 2 2 v 2 2 l v 4 , v v v v b c x c x x x x ",
"oX/./.XXXXXXXXXX/.XXXX/.XX/.XX/.XX/./.XX/.XX/.oX@XXX/.XX/.oX/.oXoXXXXXXX/.XXXXXXoXXX.X X$ &XXX/.XXXXXXXXXX/././.XX/.XX/./.XX/./.",
"pXpXsXsXsXsXuXpXpXpXuXuX>XuXuXuXuXuXuX>XuX>XuXuX>X>XuXuX>X,X,X,XuX>XuX:X:X>X:XuXuXuX>XuX$ sXpXpXsXsXsXsXsXsXsXpX>X>X>X>XuX>X>XuX",
"z k z k b c b b b b k b b b v b b b b k z b k k k k l c b c u x b v b b b v b v v b l v , v v l k v 4 b x c v b b v l v x x v v ",
":X&X*X*XqXFX&X&X*X*X&X&X-X-XU nX:X:X&X*X-X:X&X-X:X&X-X*X:X;X;X;X-X&X*X*X&X8XmX%X&X&X&X:X:X:X:X:X:X:X(.NX%X&X&X-X-X:X&X&X@X&X&X=X",
";X;X;X;XxXFXjXlXlXlXlXkXkXlXp.VXnXnXmXmXmX=X=X;X;XnXmXMX=X=X=X;X;X;X;X;XpX9XmXmXmXmXmXNXmX-X=X-X&XnX#XMXmXmXMXMX@X@X=X-X;X>X>X>X",
"VXJXBXBXxXFXBXBXBXVXVXNXVXBXp.NXVXVXVXNXVXNXNXNXBXBXVXNXVXVXnXnXNXNXNXNXNX0XBXVXVXNXVXNXVXVXNXNXBXNX#XNXBXBXBXBXBXBXsXNXBXNXNXNX",
"dXaXdXaXaXdXaXaXaXdXB.pXdXdXdXdXaXaXdXaXaXaXdXdX> aXaXaXaX,XaXaX,XaX,XaXaXaXaXaXaXaXaXaXD aXaXdXdXaXaXsXaXdXaXaXdXdXaX> dXaXdXdX",
"A.G.oXoXoXoXoXoXM.z.d.-XA.M.A.A.A.M.A.G.M.G.A.G.> G.G.A.G.M.R.M.M.G.oXoXoXoXR.G.oX=XK.J.A I.6.5.5.5.6.5.5.6.7.>.>.5.-.: oXoX/.oX"
};
