/* XPM */
static char *result[] = {
/* columns rows colors chars-per-pixel */
"64 64 211 2 ",
"   c #3A0A1D",
".  c #2E0828",
"X  c #3E0524",
"o  c #370B24",
"O  c #3C0B25",
"+  c #340A2B",
"@  c #3C0C2A",
"#  c #3E1026",
"$  c #3C112A",
"%  c #330D30",
"&  c #321331",
"*  c #470E1C",
"=  c #47141F",
"-  c #4B121D",
";  c #51131B",
":  c #420626",
">  c #430C26",
",  c #4B0D25",
"<  c #430C2A",
"1  c #4D0E29",
"2  c #510F2A",
"3  c #441225",
"4  c #4A1222",
"5  c #44122A",
"6  c #4B112B",
"7  c #52192A",
"8  c #481631",
"9  c #57242E",
"0  c #4E2030",
"q  c #5A2436",
"w  c #6F2527",
"e  c #73252A",
"r  c #7A242B",
"t  c #76292A",
"y  c #7A2A2A",
"u  c #73392C",
"i  c #632C3A",
"p  c #6A3438",
"a  c #77373C",
"s  c #723545",
"d  c #75434B",
"f  c #8C3925",
"g  c #8B382A",
"h  c #923D28",
"j  c #803332",
"k  c #AA4D2C",
"l  c #B5562D",
"z  c #BB542D",
"x  c #BD582D",
"c  c #BC5632",
"v  c #BC6139",
"b  c #C25B2F",
"n  c #C85E2F",
"m  c #C45E31",
"M  c #C95E31",
"N  c #C8612E",
"B  c #CB6332",
"V  c #CB6636",
"C  c #D26635",
"Z  c #DA6737",
"A  c #D46A35",
"S  c #D96936",
"D  c #D6673A",
"F  c #D46939",
"G  c #DA6A39",
"H  c #D87437",
"J  c #DD7A37",
"K  c #DD733B",
"L  c #DE7A3A",
"P  c #E3743D",
"I  c #E27C3D",
"U  c #E97A3D",
"Y  c #8E4E51",
"T  c #8F5250",
"R  c #A4594B",
"E  c #B16D58",
"W  c #A96967",
"Q  c #B76B65",
"!  c #B47672",
"~  c #B47872",
"^  c #D67B4D",
"/  c #DB794E",
"(  c #E56F40",
")  c #E27441",
"_  c #E57B41",
"`  c #EB7D44",
"'  c #E97D49",
"]  c #CA7E6E",
"[  c #E5833D",
"{  c #E7853D",
"}  c #B5856B",
"|  c #DD8249",
" . c #D58C58",
".. c #DC8D59",
"X. c #E58341",
"o. c #ED8243",
"O. c #EC8C44",
"+. c #EE8249",
"@. c #E78948",
"#. c #F08446",
"$. c #F18C46",
"%. c #F28D49",
"&. c #EC9345",
"*. c #EE934A",
"=. c #EE9A4A",
"-. c #F29447",
";. c #F3944C",
":. c #F39B4D",
">. c #F99C4E",
",. c #E98C55",
"<. c #E79658",
"1. c #F49450",
"2. c #F59C51",
"3. c #F99C52",
"4. c #F79B59",
"5. c #F3A14C",
"6. c #FBA34D",
"7. c #E9A65A",
"8. c #F5A453",
"9. c #FCA552",
"0. c #F6A955",
"q. c #FAA955",
"w. c #F5A65D",
"e. c #FCA45B",
"r. c #F6AA5B",
"t. c #FCAC5D",
"y. c #F7B25D",
"u. c #FCB25E",
"i. c #C88466",
"p. c #D58A66",
"a. c #C3906E",
"s. c #D3936C",
"d. c #CC8A79",
"f. c #D28B74",
"g. c #CA9378",
"h. c #D79274",
"j. c #E18B68",
"k. c #E69464",
"l. c #E39B6E",
"z. c #F99D60",
"x. c #E79E77",
"c. c #E9A567",
"v. c #F1A665",
"b. c #FCA461",
"n. c #F6AC61",
"m. c #FDAD62",
"M. c #FEB463",
"N. c #FCBA65",
"B. c #F5B46B",
"V. c #F6B76A",
"C. c #FEB569",
"Z. c #FCBB6B",
"A. c #EAA577",
"S. c #F5AB7B",
"D. c #FBB774",
"F. c #F7BD73",
"G. c #FBBE72",
"H. c #FEC16D",
"J. c #F7C277",
"K. c #FEC372",
"L. c #FFC976",
"P. c #FCC479",
"I. c #FFCC7C",
"U. c #FFD17E",
"Y. c #AD7783",
"T. c #BE8483",
"R. c #C58A86",
"E. c #C69484",
"W. c #D79281",
"Q. c #D7A28C",
"!. c #EAA784",
"~. c #FAB98D",
"^. c #FBC485",
"/. c #FECD83",
"(. c #FFCD89",
"). c #FFD284",
"_. c #FCDA86",
"`. c #FED48A",
"'. c #FDDA8C",
"]. c #F5C79D",
"[. c #FACD9F",
"{. c #FED592",
"}. c #FED994",
"|. c #FCD29D",
" X c #FEDD9C",
".X c #FEE09B",
"XX c #F5CDA4",
"oX c #FACEA2",
"OX c #F3CDAA",
"+X c #FCD2A4",
"@X c #FEDDA1",
"#X c #FCD4AA",
"$X c #FCD6AA",
"%X c #FBDCB7",
"&X c #FEE2A5",
"*X c #FEE6AC",
"=X c #FEE9AC",
"-X c #FEE7B1",
";X c #FEECB4",
":X c #FEEDBA",
">X c #FEF1BD",
",X c #FBDDC3",
"<X c #FDE3C5",
"1X c #FEEEC2",
"2X c #FFE5CA",
"3X c #FFEBCD",
"4X c #FEF3C4",
"5X c #FFF3CA",
"6X c #FFEED3",
"7X c #FFE5DA",
"8X c #FFF1D1",
/* pixels */
";.*.1.;.:.:.1.2.4.6.3.3.>.3.3.2.2.3.2.3.2.2.3.2.8.8.i.H.9.9.9.q.q.O 4.4.2.3.>.2.2.1.2.>.3.3.3.3.3.>.>.>.:.2.:.3.3.:.3.@ 4.2.2.4.",
"o.` ` ' ` _ ) ) / ' ' ` ` ` ` #.#.#.#.+.' #.o.#.+.+.Q #.o.o.' o.' : ) ' ' ' ' ` ` ` ` ` ` ` { o.` ` #.` o.' ` ` ` ` o.@ P _ U / ",
"3X3X2X3X2X2X<X<X<X<XR.OXOXOXOXOXOX$XOXY.,X,X,X,X,X%X%X<X<X<X<X2X<X2X<X2X<XT.].XX+X#X#X#Xq %X,X,X<X2Xd.,X<X<X<X2X2X2X2X3X2X<X<X3X",
"y y y t w w w w e y s D.f g g h f f h Y G.j r r r r r e r e y y y y y y y d 4.h g h h h 9 ~.m.m.m.m.] ^.y e e e e e t t t t y y ",
"`.`.{.}.}.}.}.}.}.}.A.L.;.1.>.>.3.3.9.| I.}.{.{.}.{.`.`.`.`.`.`.{.{.{.{.}.A.,.*.;.1.>.3.a {.`.`.(.`.l. X`.{.'.`.{.'.{.P.{.{.{.{.",
"`.`.).`.`.`.`._.`.).x.w.%.;.$.$.$.-.%.| ).).).).).`.`.).`.).).).).).).).'.l.;.%.%.$.#.$.j Z.C.C.C.C.<.^././.).).).`.).).`.).`.).",
"4 - 4 4 4 - 4 4 4 - 3 * ; ; ; ; ; ; - 4 4 - - - 3 - - * * * - - = 4 - - - O * , - - - - < 6 4 4 3 > 3 4 4 - - = 4 4 4 4 - 4 3 4 ",
")./.).U.A.'.U.U.I.).).)._.).U.).U.U.U.U.U.U.U.I.$ ).).U.).).s.)._._.).U.I.U.U.I.).).).).).).`.^.+X'.`.`.`.).).).U.U.I.L.).).U.).",
"Z.8.8.Z.B.H J I { O.2.H.H.Z.N.Z.L I J L L J I K # [ J J J J v J [ O.@.=.Z.H.K.H.L.r.L.0.L.K.K.G.].L.K.H.H.N.M.L L I I [ L [ J L ",
"0.6.N.r.w.P.H.K.H.H.:.2.8.8.0.N.N.N.N.N.N.N.N.N.$ N.H.Z.N.N.7.P.L.Z.Z.N.N.Z.N.Z.N.q.0.6.8.9.9.w.~.H.O.&.Z.Z.N.N.N.N.N.N.N.N.N.N.",
"Z.Z.K.K.B.G.Z.Z.N.:.m.M.M.N.N.N.N.Z.M.N.N.M.N.N.$ N.Z.M.N.N.<.N.M.M.Z.M.M.Z.C.N.N.t.u.M.M.N.C.Z.~.u.M.N.N.N.N.N.N.N.N.N.N.N.N.Z.",
"X : : : < : < > > > > > : > : : > > > < < : : : o X : : : O O @ > > > > > , > < > < , > : > : O O > > O > 5 3 4 3 > , > > > O > ",
"M.M.N.M.M.M.N.M.u.M.M.M.u.u.u.u.M.M.u.s.}.M.Z.C.Z.-X-XF.Z.M.M.M.N.M.C.M.M.E.&XC.M.N.C.-X-XD.N.N.C.C.M.Z.Z.@ N.M.M.M.M.C.N.M.N.M.",
"*X*X*X*X*X*X&X*X=X&X=X*X=X=X=X=X*X*X=XA.-X*X*X*X*X*X-X-X*X*X*X*X*X*X-X-X-XA.*X-X-X*X*X*X-X*X-X-X*X*X*X*X*X@ `.I.*X-X&X*X*X*X&X*X",
"Z.Z.N.N.Z.Z.Z.Z.Z.Z.D.Z.Z.F.H.Z.D.Z.Z.k.B.Z.Z.Z.Z.F.Z.Z.Z.F.D.Z.Z.Z.N.Z.C.l.D.Z.Z.Z.Z.Z.Z.Z.H.Z.Z.Z.Z.Z.D.+ C.N.N.Z.Z.Z.Z.Z.Z.N.",
"m.t.t.m.t.M.t.m.m.m.m.m.m.m.m.m.m.m.b...m.m.m.M.m.m.m.m.m.m.m.m.t.m.e.t.e.i.t.e.b.t.m.m.m.w.m.m.m.m.b.t.m.. e.t.e.t.m.t.m.m.t.t.",
"+XoXoXoXoXoX[.oX[.XXoXoXoXoXoX#X#XoXoX+X#XoX@ [.|.oX+X|.+X|.|.|.+X  oX[.oXoXoXoX|.[.oXoXoXoXoXXX7X3X2X6X3X2X2X1X+ +X|.O oXoX+X+X",
"m m m M ,.y.M.M.M.B m m m m m z c z z z z z . K L u.y.u.y.M.u.M.u.o V V 0.q.0.9.0.B V 8.5.4.2.k.,XU U U U U P I + O.*.@ x z z z ",
"$.O.$.$.%.-.-.-.%.%.%.O.%.%.$.m z m z b m V % r.r.u.t.0.V V V V V   H H K V V V K K K P :.2.Z ( %XC.m.M.Z.S G S + >.-.@ B N B C ",
"Z Z D Z Z Z Z D A D D F D Z Z Z Z D D D D D + F D C C Z A A A C A o F F F A F A A F A Z Z Z D / !.3.3.3.4.4.3.4.+ S F o V A A A ",
"#X#X$X$XQ.8X8X3X3X5X5X5X8X5X3X3X6X8X5X5X3X8X8X8X8X6X5X6X8X3X5X3X3X3X3X5X5X~ %X$X$X#X$X$X0 6X6X6X6X6X6X6X6X6X3X6X6X6X6X6X8X8X6X8X",
"0.0.q.0.p.$XN.C.C.M.C.C.M.M.M.M.C.m.C.C.C.C.C.C.C.C.C.C.C.C.C.C.M.M.M.M.u.~ (.2.2.8.2.0.0 (.Z.C.C.C.N.M.M.M.M.C.C.M.C.N.C.M.Z.M.",
"0.r.0.0.<.*XC.M.m.M.n.M.n.M.m.M.r.M.t.n.m.m.M.n.m.m.n.n.M.M.C.M.M.Z.M.m.Z.s.`.Z.M.M.M.H.9 {.Z.C.C.U.I.I.Z.M.N.N.M.n.M.m.n.n.m.m.",
"9.9.8.4.<.m.m.M.M.M.M.m.M.C.M.C.M.M.M.t.M.M.u.M.u.u.M.M.C.m.M.m.m.m.m.t.t.i.t.m.t.t.t.M.9 M.t.M.m.t.m.m.m.M.m.m.m.M.m.C.C.M.M.M.",
"5X5X5X5X5X5X5X5X4X4XE.5X1X5X3 5X5X5X5X4X5X4X4X>X5X4Xg.5X5X5X5X5X5X5X5X5X5X5X5X5X5X5X5X5X1X5X5X5X5X5X5X5X5X5X4X5X& 5X5X5X5X5X5X4X",
"C.C.M.M.N.N.Z.N.N.Z.d.&XC.m.0 }.M.M.M.M.M.M.N.Z.N.Z.d.&XC.C.N.M.M.M.N.C.M.C.C.C.m.C.C.M.M.M.m.C.M.M.M.C.M.M.M.Z.& M.M.C.M.M.M.N.",
"K.Z.Z.N.Z.C.N.L.Z.H.A.&XF.Z.i }.C.C.N.L./.I.P.K.K.K.h.&XC.C.V.C.C.C.C.K.D.Z.C.N.Z.Z.F.Z.Z.G.G.G.Z.G.Z.G.K.K.K.H.% C.V.N.Z.H.H.K.",
"m.m.u.t.t.t.t.t.t.9.h.C.M.M.i m.m.M.t.m.t.t.t.t.t.M.f.M.m.m.m.t.t.M.m.m.m.C.m.m.t.t.e.t.b.m.b.t.t.t.m.m.t.t.u.u.+ m.m.m.m.t.t.u.",
"`.. }.}.}.}.{.{.{.{.{.{.{.{.}.}. X}.}.}. X}. X}.}. X}.}.}.}. X}.}.}.}.}.}.!  X X X X X}.{.}.}.}.}.}.}.}.}.}.'.}.}.`. Xo 1X4X>X>X",
"X.+ _ P Z.Z.Z.Z.Z.Z.C.Z.Z.H.Z.N.V.C.N.K H K K K K K P Z.Z.F.K.Z.Z.Z.V.M.r.! N._ I I U N.N.Z.N.N.Z.N.N.Z.N.N.N.N.N.N.r.@ F.m.m.t.",
";.@ 2.:.:.:.3.>.3.3.3.>.6.2.>.>.>.2.:.;.-.%.-.-.-.;.;.3.>.3.9.2.4.>.>.>.8.] C.=.>.2.2.:.2.=.:.2.2.:.-.:.X.[ X.O.y.r.B.o B.0.0.0.",
"_ + P P K P P P ) P P P P P P ) K ) P K K G G P P K P P _ ) ) ) L P P P / Q $.` ` _ U ' _ ` _ ` _ X._ _ ` X.%.%.%.%.1.o r.4.1.e.",
"4X4X5X4X4X4X4X5X4X5X4X5X5X5X5X5X5X5X5XR.1X>X4X>X< 4X4X5X4X4X4X4X5X>X4X4X>X>X4X5X5X5X5X5X5X4X5X4X5X5Xg.4X5X5X1X5X&X4X4X4X4X5X4X5X",
"K.Z.H.G.H.H.H.Z.H.Z.H.Z.Z.Z.Z.Z.Z.Z.D.f.&XF.F.D.& K.Z.G.Z.F.H.Z.H.Z.Z.N.Z.N.N.Z.G.G.Z.H.Z.H.G.G.Z.H.h.+XN.H.Z.F.F.H.G.K.K.Z.H.Z.",
"9.6.q.6.9.q.9.9.q.9.6.q.q.q.9.9.9.9.9.s.@Xm.u.9.$ 9.9.9.q.9.9.6.9.u.q.9.q.9.q.9.q.9.9.9.8.8.9.9.9.q.f.{.q.9.q.6.q.q.9.6.q.9.6.q.",
"D.M.C.M.Z.M.M.M.M.M.M.N.M.M.M.C.C.C.m.f.M.t.m.:.@ C.M.M.C.M.M.N.u.M.M.M.M.N.M.C.C.M.C.m.m.N.C.C.M.M.d.M.u.M.M.M.M.M.N.M.u.M.u.M.",
".X'.'.}.Q.5X4X5X4X1X%X-X1X4X:X4X1X4X4XE..X'.'.{.'.'.`.{.'.}.a.}.{.{.`.`.`.! {.}.{.}.{.'.i 1X5X5X5X5X1X1X1X1X:X5X4X4X>XO }.'.'.{.",
"H.y.u.Z.c. X/./././.(.`.(.).`.(./.(./.x.c.w.0.n.r.n.m.n.m.r. .8.8.M.y.y.y.i.8.| | @.| | s `./.(./.`.`.(.(.`./.`./.(./.O n.r.r.M.",
"Z.Z.H.0.7.I.M.u.m.m.t.u.t.t.u.t.u.u.M.k.I.L.H.N.H.N.H.N.H.H.7.r.r.-.&.&.&.^ m C C K P _ a K.C.M.M.m.t.M.M.M.m.M.M.t.M.  L.K.H.H.",
"Z.Z.Z.K.C.+X}.|.}.{.{.}.|.{.}.{.{.`.`.A.N.y.V.N.N.N.N.N.N.Z.7.t.t.r.M.m.M.k.,.*.*.%.-.-.a `.}.}.`.`.`.`.`.`.`.`.`.`./.  P.J.H.H.",
"5 # < < < < < < < < : @ < < 5 # 5 5 @ @ < @ @ @ $ @ $ # 3 < < @ @ < @ < O @ < < < < < 5 O @ < < < < < > > > > < # O @ O O O > > ",
"k k k k x X.P / %.-.R M.l X.O 8.5.5.u.0.K.N.V.=.N.H.W N.H 8.8.0.q.K 2.M.M.u.m.m.M.r.u.m.r.N.M.c.~.B :.:.;.:.:.1.+ V :.:.2.>.N n ",
";.;.-.%.%.-.$.%.$.$.@.%.%.*.7 L.J.H.Z.q.K.H.Z.H.Z.Z...$.@.;.%.9.0.$.*.:.0.0.t.N.V.:.:.2.u.M.N.C.^.O.%.%.;.;.;.:.+ -.o.o.o.o.O.$.",
"%.+.$.$.$.$.#.$.H / V O.%.O.; ;.;.-.;.;.:.;.:.;.;.%. .$.O.O.$.$.#.O.O.%.%.O.*.-.*.*.&.&.*.:.-.<.,.#.#.$.$.$.$.O.@ O.%.O.O.%.O.o.",
"@ @ > 5 < < < < < @ @ > > @ o $ > > < : < < < > < < < O O > > > < O O > O O O X O X O : @ < : < @ > : > > 4 , > O O 3 O 5 O 3 6 ",
"t.0.N.N.l.}.0.r.t.M.=.:.:.5.6.6.6.0.q.} Z.:.:.5.5.H.G.u.q.r.H.K.[ X 5.-.:.:.:.5.:.5.8.6.0 `.N.M.C.C.M.u.M.m.u.M.M.N.M.o H.H.N.N.",
"Z.;.;.H.B.I.P.L.P.L.K.K.H.5.H.K.K.H.I.7.K.K.K.H.H.H.H.K.K.K.K.H.Z.O L.K.K.H.Z.Z.Z.y.r.Z.u &X@X@X@X X.X@X@X X X X X X Xo X.[ [ { ",
"Z.Z.L.^.B.^.K.K.H.G.H.H.K.L.L.L.L.L.K.<.K.K.Z.Z.Z.Z.Z.Z.Z.Z.Z.Z.Z.3 Z.Z.Z.M.M.t.r.t.u.u.u `.`.`.`.`.`.`.`.`.(.`.`.`.`.  Z.N.Z.H.",
"4.9.4.4.k.4.1.3.1.3.3.1.4.3.3.4.3.3.3.E -.;.;.;.:.2.:.1.:.:.1.;.;.> ;.;.;.:.3.6.>.>.1.;.p b.b.b.z.4.b.b.b.b.e.b.w.w.e.o 9.9.3.2.",
"5X4X4X4X4X1X4X4X1X:XR.:X1X:X7 1X5X1X5X5X4X4X4X4X>X>XR.:X>X4X1X4X4X4X5X5X5X5X4X5X1X4X5X4X>X1X>X%X6X4X4X5X4X4X4X4X4X5X4X5X5X4X4X:X",
"K.G.Z.F.G.G.G.G.G.Z.W.*XZ.V.0 {.Z.Z.Z.Z.Z.G.G.D.F.Z.s.&XF.Z.Z.G.Z.F.Z.G.Z.F.F.G.F.G.G.G.F.G.G.D.<XG.Z.Z.Z.Z.Z.Z.Z.H.F.H.Z.F.Z.Z.",
"9.9.6.6.6.9.6.6.6.9.A.@XC.t.q ^.9.9.9.9.6.9.6.6.9.r.s.@X6.6.6.6.6.6.6.6.6.6.6.6.9.6.6.6.6.6.9.m.%X9.6.6.6.6.6.6.6.6.6.6.6.6.6.9.",
"D.Z.Z.Z.Z.Z.Z.Z.Z.C.j.C.C.C.i m.M.N.N.Z.Z.M.C.9.M.C.g.N.M.N.Z.C.Z.Z.Z.C.Z.Z.M.M.C.N.Z.Z.Z.Z.Z.D.S.C.C.m.m.Z.Z.C.Z.C.C.Z.M.Z.m.M.",
"L.# `.'.'.{.'.'.'.'.`.'.`.`.`.`.'.`.`.E '.'.`.`.`.`.`.'.'.}.'.'.'.'.'.{.}._.'.`.`.`.).`.'._.'.`.`.'.W `.`.`.'.`.`.'.'.`.'.'.'._.",
"c % Z Z A A A A B B B B B B C V C C C R B B B N N N N I I L K H S A S C B C A F N V B L K A V B B B R 2.m M B B B M M B B N M M ",
"< @ 5 5 6 < 5 5 < < > 3 > 3 3 3 3 3 3 @ 5 5 < 5 5 5 # 5 3 5 3 3 3 3 3 # # # # # # # 5 $ $ $ 5 5 5 5 @ # 5 5 5 5 6 3 3 3 3 3 4 3 ",
"M.u.N.u.M.u.M.u.u.u.M.u.u.u.u.M.M.u.M.u.u.M.M.N.Z.M.M.u.M.u.u.N.u.M.M.u.M.C.M.u.M.u.u.v.  Z.M.u.M.M.M.M.u.M.M.M.u.M.M.u.u.u.M.u.",
").).).`.`.`.`.`.).)././././.I./././.I././.I.I.I.I./.I./.I./.U.U.I.U.I.I.P.L.I./.^.^.U./.o ).).).).).`.`.`.`.).).I.I.I.I./.I.I./.",
"2 1 2 1 6 2 6 6 6 6 2 6 6 5 5 6 , 6 6 2 2 6 1 1 1 1 6 3 6 4 3 4 6 6 6 6 6 6 1 5 8 8 5 < @ 5 6 6 5 6 5 5 5 6 6 , 6 3 < 6 3 3 3 5 ",
"F.G.G.J.!.:XG.D.F.F.G.F.F.J.s &XP.J.F.F.J.K.F.K.G.F.F.H.P.P.K.L.J.F.F.F.F.R.=XF.F.F.G.J.J.J.J.J.J.J.d.;XG.F.F.J.K.J.J.F.F.Z.F.F.",
"L.P.L.L.XX1X}. X X X@X X.X@XY :X=X&X=X=X*XH.H.L.L.&X-X=XH.H.H.H.L.L.L.H.`.!.;X*X*X=X-X=X*XK.K.K.K.&XA.-X-X=X-X-XH.H.K.L.L.I.I.I.",
"4X>X:X:XOX1X:X:X>X1X1X:X:X:XT -X:X:X:X;X;X:X;X;X:X:X;X:X>X;X=X=X;X;X;X;X-XQ.:X>X:X:X:X:X:X:X;X;X:X:XA.:X;X:X:X;X:X:X(.-X:X;X;X;X",
"_._._.`._._._._._.'.} _.'.'.'.'.'.'.'._._.'.'.'.O _._._._._._._._._._._._._._._._._._._.i _._._.'._._._._.'.'._.'._._.o _.'._.'.",
"&.*.N.N.N.H.N.u.L ^ E K.&.{ { @.{ O.O.O.O.&.*.&.O &.&.&.=.{ &.{ &.{ N.N.N.N.5.-.H.H.=.:.q ,.B B N N B N N B B m m m m + N.u.N.N."
};
