/* XPM */
static char *result[] = {
/* columns rows colors chars-per-pixel */
"64 64 253 2 ",
"   c #07081C",
".  c #180914",
"X  c #3B0003",
"o  c #280D13",
"O  c #260318",
"+  c #390519",
"@  c #0A0D26",
"#  c #1A0A26",
"$  c #0D1228",
"%  c #181528",
"&  c #071236",
"*  c #181937",
"=  c #260926",
"-  c #3C0B25",
";  c #360A29",
":  c #3C0C2A",
">  c #3C122A",
",  c #2E1730",
"<  c #241A37",
"1  c #252123",
"2  c #262638",
"3  c #352632",
"4  c #450106",
"5  c #4A0316",
"6  c #47141F",
"7  c #4B121D",
"8  c #51131B",
"9  c #462A1C",
"0  c #430C25",
"q  c #430C2A",
"w  c #4B0D28",
"e  c #441225",
"r  c #4A1222",
"t  c #4E1B25",
"y  c #44122A",
"u  c #4B112B",
"i  c #4D152C",
"p  c #4C2432",
"a  c #5A2536",
"s  c #77282A",
"d  c #6F3436",
"f  c #0F1944",
"g  c #311D43",
"h  c #252745",
"j  c #202B4F",
"k  c #382949",
"l  c #2D3248",
"z  c #2E3254",
"x  c #373A56",
"c  c #4C324E",
"v  c #6C364D",
"b  c #473B67",
"n  c #573966",
"m  c #51396E",
"M  c #673764",
"N  c #36425A",
"B  c #2B426C",
"V  c #4F4758",
"C  c #704552",
"Z  c #6E6054",
"A  c #494867",
"S  c #574467",
"D  c #585468",
"F  c #4A5072",
"G  c #585A77",
"H  c #6A4B64",
"J  c #71536D",
"K  c #5A6279",
"L  c #64697A",
"P  c #756775",
"I  c #8B3927",
"U  c #8D3A2B",
"Y  c #B4522D",
"T  c #C55D2F",
"R  c #C75F31",
"E  c #C9622E",
"W  c #CB6331",
"Q  c #C76338",
"!  c #D56936",
"~  c #DD783A",
"^  c #E2793D",
"/  c #8F3B58",
"(  c #AD3F62",
")  c #894B57",
"_  c #914F58",
"`  c #A35A51",
"'  c #AE7158",
"]  c #934D66",
"[  c #AC4C68",
"{  c #967073",
"}  c #AA6A69",
"|  c #AF6E71",
" . c #DB7A4B",
".. c #E56F40",
"X. c #E67A44",
"o. c #EC7D45",
"O. c #C77C73",
"+. c #E8853E",
"@. c #B38974",
"#. c #DC8C53",
"$. c #ED8243",
"%. c #EA8547",
"&. c #EC8C43",
"*. c #F08446",
"=. c #F28C46",
"-. c #F28D49",
";. c #ED9547",
":. c #F3934C",
">. c #F6994B",
",. c #F49B4D",
"<. c #E89158",
"1. c #F69B51",
"2. c #F69955",
"3. c #F99B52",
"4. c #F3A24D",
"5. c #FBA34D",
"6. c #EFA757",
"7. c #F4A353",
"8. c #FCA551",
"9. c #F9A757",
"0. c #FDAC5D",
"q. c #FDB25E",
"w. c #CE8F6E",
"e. c #EA9A6C",
"r. c #DAA677",
"t. c #EAA96D",
"y. c #F8A661",
"u. c #FDAD62",
"i. c #FEB463",
"p. c #FCBA65",
"a. c #F5B56A",
"s. c #FEB569",
"d. c #FDBC6B",
"f. c #EAA776",
"g. c #F8B776",
"h. c #F6BC73",
"j. c #FABE72",
"k. c #FEC16D",
"l. c #FEC373",
"z. c #FCC776",
"x. c #FCC479",
"c. c #FFCB7C",
"v. c #FFD27E",
"b. c #71718D",
"n. c #616B96",
"m. c #8F5B83",
"M. c #8E6E90",
"N. c #A57A97",
"B. c #D7788D",
"V. c #7B839A",
"C. c #5C86B0",
"Z. c #6E8CB0",
"A. c #7999C5",
"S. c #8D8B93",
"D. c #B78D90",
"F. c #B5A19A",
"G. c #908EAE",
"H. c #AF95B5",
"J. c #9CA2B8",
"K. c #ADA9B8",
"L. c #CE938D",
"P. c #C59694",
"I. c #D5A589",
"U. c #EFB289",
"Y. c #C894AC",
"T. c #DBB0A6",
"R. c #FCC787",
"E. c #FECD83",
"W. c #FFD284",
"Q. c #FCDA86",
"!. c #FED48A",
"~. c #FDDA8B",
"^. c #F7C89C",
"/. c #FED592",
"(. c #FED993",
"). c #FEDD9D",
"_. c #FACDA2",
"`. c #F4CCA9",
"'. c #E8D6A9",
"]. c #FCD7A6",
"[. c #FBDDB9",
"{. c #FDE5A7",
"}. c #FEE6AC",
"|. c #FDE7B1",
" X c #FEECB4",
".X c #FEEDBA",
"XX c #FEF1BE",
"oX c #989DCD",
"OX c #A69ACA",
"+X c #89A8CA",
"@X c #95A8CA",
"#X c #9AB4CA",
"$X c #89ACD2",
"%X c #98ABD6",
"&X c #8AB3D0",
"*X c #96B5D7",
"=X c #A7AAC6",
"-X c #B3AFCE",
";X c #A6B7CC",
":X c #A8B9D2",
">X c #A1BCE3",
",X c #C7B6C9",
"<X c #CDB0CE",
"1X c #EEB5C9",
"2X c #9CC1D3",
"3X c #B9C8CC",
"4X c #ADC6D1",
"5X c #B8C7D9",
"6X c #BDD2D9",
"7X c #AACDE8",
"8X c #B8CBE5",
"9X c #B9D3E7",
"0X c #CBCFCE",
"qX c #D7C7C8",
"wX c #C6C9D9",
"eX c #D6CAD9",
"rX c #C7D5D9",
"tX c #D6D7D5",
"yX c #FBDDC4",
"uX c #E8C7D6",
"iX c #EAD2D2",
"pX c #FBDAD8",
"aX c #D6E8DB",
"sX c #FDE3C5",
"dX c #FEEDC2",
"fX c #F2E7CF",
"gX c #FFE5CA",
"hX c #FFECCD",
"jX c #FEF3C3",
"kX c #FFF4CA",
"lX c #E8E8DA",
"zX c #FCE6D8",
"xX c #C6CBE5",
"cX c #D4CBE8",
"vX c #C7D4E7",
"bX c #D5D6E8",
"nX c #CED6F4",
"mX c #EED8EC",
"MX c #DAECE8",
"NX c #DCF3E7",
"BX c #C8EFFF",
"VX c #DBE8F8",
"CX c #DDF2F4",
"ZX c #E7ECE8",
"AX c #FAE7E4",
"SX c #E5F3E4",
"DX c #E4F2EC",
"FX c #E9F5EA",
"GX c #F6F4E8",
"HX c #E3EAFA",
"JX c #FDE9FB",
"KX c #E7F5F6",
"LX c #F6F7FE",
/* pixels */
":.:.:.1.>.>.3.:.2.3.3.3.>.3.:.3.3.3.3.3.3.3.3.7.7.2.w.k.8.8.8.9.9.0 2.2.3.2.1.1.3.:.3.3.3.:.3.3.3.3.3.3.1.1.1.,.1.1.3.- 2.1.1.,.",
"$.X.o.X.^ ^ X.^  .*.o.o.o.o.o.-.*.*.*.*.*.%.*.*.*.*.' o.o.o.$.$.X.0 X.o.o.%.o.o.o.o.o.o.*.o.o.$.+.^ *.+.$.X.o.o.$.o.$.: X.X.X.X.",
"hXhXgXhXsXsXsXsXgXyXP.`.`.`.`.`._.].].{ yXyXyXyXyXyXyXyXsXsXsXgXgXgXgXgXkX| `._.].].].].a yXyXyXyXgXO.yXsXsXsXgXgXgXgXfXhXgXsXfX",
"s s s s a s s s s s v s.I I I U I U U ) j.s s s s s s s s s s s s s s s U C 2.U U U U U a g.u.u.u.i.O.E.s s s s s s s s s s s s ",
"(.!.!.(.(.(.(.(.(.(.f.z.:.>.:.3.3.3.8.#.z.(./.(./.!.!.!.!.!.W.~.~.(.(.~./.r.<.=.:.>.>.3.d (.!.!.!.!.e.)././.!.!.(.!.!.x.(.!././.",
"!.W.!.!.!.!.!.Q.!.!.e.9.:.:.:.-.:.=.=. .W.W.!.Q.!.R.W.W.W.!.!.!.!.W.!.Q.!.e.-.-.=.=.*.=./ s.s.s.s.s.#.E.E.E.W.W.W.!.!.!.!.!.W.!.",
"r 7 r r r r 6 6 r 7 6 0 8 8 8 8 8 8 8 e r 7 7 8 r 7 7 7 . . . t t a ] LXo . % H 8 7 7 7 + r r 7 r 0 e r e 7 7 7 r r 7 7 7 r e r ",
"W.W.W.v.f.!.W.v.c.W.W.W.!.W.v.W.v.v.v.v.v.v.v.v.> . v.v.Q.].zX{ @.P.P.{ AXAXGXJXJX. o W.!.W.!.R.]./.W.!.!.W.W.W.v.v.c.c.W.v.W.W.",
"k.7.7.d.a.~ ~ ^ +.&.1.k.k.d.d.p.~ ~ ~ ~ +.' o ~ y $.' } } } { zXpXzXAXiX{ | { | } zXAXa.x.o z.k.^.z.z.k.d.d.p.~ ~ ^ ^ ^ +.~ ~ +.",
"9.7.i.0.6.x.k.j.k.k.,.1.6.4.6.p.p.p.p.d.a.k.JX`.| | } } zXzXzXfXFXZXGXlXfXzXzXgX| } | } pXu.0.9 U.d.&.&.d.p.p.p.p.p.p.p.p.p.p.d.",
"p.d.s.j.a.g.d.d.p.1.0.i.p.i.p.p.p.p.@.q.p.| } | qXtXAXqXiXfXlXGXGXSXSXtXGXAXGXiXqXlXqXqXN.} L.g.U.i.d.d.p.p.s.p.p.p.p.p.p.p.p.p.",
"- 0 0 q q q q q 0 0 q 0 0 0 0 0 5 6 + v ` L.pXyXtX3XDXrXFXNXSXlXSXSXSXlXSXDXZXDXrXDX0XqXpXL.L.{ v r o - q y r r r 0 0 r 0 0 - : ",
"u.p.i.i.p.p.p.i.i.i.i.i.0.q.i.t.q.R.J _ F.fXlXDXrXwXCXrXDXZXKXZXSXDXSXMXZXZXKXMXrXDX0XrXSXZXAXD.{ C a.p.p.: p.p.p.i.i.i.p.i.i.i.",
"|.}.}.}.{.{.}.{.{.{.{.}.}.}.{.qXmXC a uXtXNXNXDXwXbXCX6XDXlXKXZXDXNXNXMXDXDXKXNXrXCXrXrXNXNXDXqX1XM H }.}.: !.c.}.|.}.}.}.}.}.}.",
"j.p.s.p.d.d.d.d.d.d.d.d.p.r.P tXJ ] ,XwX3XFXDXMXrXrXVXrXFXNXSXDXDXDXKXtXSXMXDXDXrXCX6XrXMXCXKXtXeX,XC H T.y a.s.d.s.s.d.d.p.d.p.",
"0.0.0.u.0.u.u.u.u.u.u.0.u.u.eXV H.cX=X9X6XKXMXKXvXvXKXrXNXSXSXSXDXGXSXaXSXNXMXDX3XKX6X6XKXKXZXrXeXK.eXV H H.9.0.0.0.u.u.u.u.0.0.",
"_._._._._._._._._._._._.T.0XJ H.,X8X;X9X5XCXMXKXwXbXCX0XFXSXSXZXJXZXDXaXNXMXKXFX0XDXrXrXCXCXCXrXbXK.9X6Xn H.iXsX= _._.> _._._.].",
"T R R R <.i.i.i.i.Q T 3 ,XS -X<XxXvX#XvX6XKXMXMXeXeXZX0XlXlXAXAXAXZXZXaXSXGXZXZXtXZX0XqXCXMXMXaX5X;X9X9XeXn N.T.; =.:.: Y Y T Y ",
"-.-.=.*.=.:.=.-.:.;.1 -XD J eX<X5X8X;X9X4XCXMXZXeXuXJX'.zXGXzXpXpXJXzXfXAXzXzXAXqXAXiXqXNXNXKX6XrX#X9X5X5XcXH <Xc ,.:.- W E W ! ",
"! ! ! ! ! ! ! ! ! o 3XJ.V G.VXxXxX8X2X9X4XMXrXlXD.P.Y.D.D.P.P.P.P.D.D.D.L.L.L.L.D.P.Y.D.aXaXNXrX6X:X8XvX8XxXOXG P ! ! - ! ! ! ! ",
"].].].].I.hXhXhXhXfX,XD #XZ.nXxXvX9X2X9X4XNXaXaX[ [ [ C _ X X X 4 X X 4 4 4 4 } ) ] [ [ mXCXMXrX9X;X8X8X8X9X=XM.A fX2 zXhXhXzXkX",
"9.6.0.9.w.].s.d.s.@.m.S #XZ.8XHX9X9XJ.9X3XaXtXiX[ [ 4 X X T.P.d | ' @.w.L.` L.4 X L.( [ iX3XMX6XvX#X8XxX7X9X@X=Xn ,X% i.s.p.s.d.",
"9.9.9.9.<.}.s.p.u.V M.n +XZ.9X9X9X6X;XvX3XZXfXo 4 1X[ | ] > v p c V V V V p s | [ O.B.5 v tXZXrX6X;X9X7X9X7X%X@XS <X$ i.a.u.i.u.",
"9.7.7.7.<.u.i.u.p.{ m.H #XC.>X8X8X7X;XwXeXH.pXv v 4 5 5 t qXtX-XcXxXvX3XxXuXq 4 5 4 5 U } zXF.bXvX#X8XvX7X$X&X@Xm <X$ i.u.i.u.i.",
"hXkXkXkXkXkXkXjXjXh m.n %XZ.>X7X7XvX#XxXN./ ] w 5 ] <XM., -XrX;XwXvXvX5XvXbXJX  ,XuX) 5 i [ ] D.wX;X8X8X9X&X+X%XS -X# kXkXkXkXjX",
"p.i.i.p.i.p.d.d.d.{ M.M oXZ.$X$X@X7X#XeXM w O uX( ] % 6X=XLX:X4X9XvX9X9XvX@ cX-XHXeX] / 1X5 5 v wX#X8X@XA.&XBX@Xm <X= u.d.p.i.p.",
"l.j.d.s.d.d.p.z.d.b.{ M %XC.>XA.&X7X2XxXg a N.uX( / o wXwXJ.* ;X9X9X9X4XvXV k K.0XqX/ / uX3 O g xX:X9X&X*X&X&X@Xm -X= s.s.k.k.x.",
"0.0.u.u.0.0.0.0.0.] m.M %XC.$X$X&X7X&X8Xg g b.g / ) uXtXcXh nX-XwXwXbX5Xb.tXJ.K.S.eX/ / O b.N.< xX%X7X+XZ.&X@X@XS <X# y.u.0.0.0.",
"!.; (.(.(.(.(.~./.P { n %Xn.%X%X&XA.#X8X< k . mXM ] qXrX5XxX=XS J C J H D V 3X;XJ.qX) ] uX. ; * 8X%X$X$X*X$X$X%XS H.# : jXjXjX.X",
"%.; ~ +.a.k.d.d.u.b.m.M %XA.A.A.&X2XoX:X* , b.Y.O O G.eXwX<X. c 1X1X1X1XLXG.0X3XH.p + 5 Y.J = * 8X@X$X*X$X%X$X@XS -X# : h.u.0.0.",
";.; :.1.,.:.3.3.3.P m.n oXA.$XA.*X$X%X8XG.:X* p v C D.D.O = O JX4 4 + + JX= . ,X; J ] v u m nX$X>XA.$X$XZ.*X+X@Xm -X$ + a.0.9.6.",
"X.; ....~ ^ ......] b.n %XC.%X%X$X%X@X7X>XB F   LXo + + uXJ S JX| ] { + JX] C ,X= = = JX= j n.>X*X*X+XZ.%XoX%XoXn -X@ ; 9.3.2.9.",
"jXjXjXjXjXjXjXkXdXL -XJ m m OXOXoXoXoXoX+X@X8X@ L J 2 = H.@ # b.= O O = JX= D % b G.D M.  V.%X+XoXoXoX-XOXG.b b b =X$ XXjXjXkXkX",
"x.d.j.d.l.d.k.d.j.# c G.OXb m m m OXb.OXG.@X@ VX$ wXLXJ.* G.JX# c O = # b.= LXK.* x HX  LX& OXOXoXb.m m m n H.H.x l l.z.l.d.d.d.",
"8.8.8.8.8.8.8.8.8.8.# 3 = g k N.m m m M M.OX= JXJ.wXF @X=X=XOXg # c = # , mX  =XJ.vXN 2 K.% H.b.b b m n.b.g k < # w.8.8.8.8.8.8.",
"s.p.p.s.d.p.s.p.i.i.u.s.g.# k < k M.H.N.M M n H.-XG.x =XK.LXcX@ g ; c = , D * -XG.=X* < % c S n G.b.z g <   # i.i.p.p.i.i.i.q.i.",
").~.(.(.r.hXjXjXdXkX]..XjXjXdXjX# g f g * N F * k J HXc bXk * JX= : ] o G.g A * j n.* =Xn.F b j < < % F.kXdX.XkXkXjXXX- (.~.~.~.",
"k.q.q.d.t.).E.R.E.R.R.!.R.!.E.!.^.R.R.f.& h h & LXG.k mXcXn.n.% JXO 1 ,X# A n.HXN.@ x M.# h & @ R.!.!.R.R.E.!.E.E.E.W.> u.q.a.y.",
"d.d.k.9.6.R.u.u.u.u.q.0.0.0.q.q.q.0.u.e.c.x.k.d.G.J.f B %Xn.n.@ x V wX  & j b N.* 2 G.2 d g.i.u.i.i.u.i.i.i.0.i.i.0.i.+ z.z.k.k.",
"d.d.d.k.s.].(.).(././.(./././././.!.!.f.a.p.p.h.b.F P V.f BXB n.j b.nXu.s.G.VXB J.-.LX# d (./.(.!.!.!.!.~./.(.!.!.!.R.+ l.l.k.k.",
"> y : : : q q q q q q : q 0 e : y q : : : : : >   A V.  & f CXn.KX  D L F ;XF n.$Xb.V.> : : : q : q q q 0 0 e : > - - - - 0 0 0 ",
"Y Y Y Y Y o...~ -.:.` q.Y $.0 7.,.7.q.9.k.i.p.;.k.bXMXq.j n.f 9X$  .4.D HXk.D.f & & N u.9.p.p.t.U.W >.>.>.>.,.>.; Q ,.,.,.,.E E ",
"%.:.;.;.-.:.-.-.&.=.%.-.;.-.t x.l.k.k.9.l.l.k.h.k.L V.=.f n.nX4X7.&.;.Z G b.& z & LXr.,.q.i.i.p.R.-.-.-.-.:.:.:.; :.%.%.$.$.%.=.",
"-.%.=.=.-.%.=.=.~  .Q &.&.&.t :.:.;.:.:.:.:.:.,.>.@ $ xXZ.LXN K N &.;.VXN F D h A S.w.;.;.,.>.<.<.*.%.=.-.=.-.*.; &.=.=.&.&.=.&.",
": - 0 q q : q q q q : : 0 0 > > q 0 q 0 q 0 q 0 q % %   KX2 > K b.l LXl * > G.b cXA - q : q e q q q 0 0 0 r r 0 - > > > y e y q ",
"0.9.p.p.e.).9.7.q.q.,.;.,.4.4.5.4.7.8.@.k.,.4.4.4.k.AXU.ZXLXk.$ n.:X* & t.4.J.* @ % 7.7.i E.q.q.i.i.i.i.i.q.q.i.i.i.q.; k.p.p.d.",
"d.>.-.l.a.c.c.x.z.z.z.l.k.4.z.k.k.k.z.6.k.z.l.k.j.d.F n.% % b.z.K * V.A A :XR.vX  f.6.d.d {.).{.).].).].].).(.).).).).+ +.$.+.+.",
"s.d.z.E.a.R.l.k.j.l.d.k.k.z.z.z.z.z.z.<.x.j.d.d.d.d.x G R.d.l LXK 6 I.8X4Xh.i.L   t.i.i.d Q.~.!.!.!.!.W.!.!.!.!.!.!.W.; p.p.p.k.",
"3.9.2.y.e.2.2.:.3.3.2.2.2.2.2.2.3.3.3.' :.:.:.:.:.:.@ * vXr.J.2 rX0 D ;XvXr.f.n.l 3.:.:.d y.y.y.0.y.y.y.y.9.y.9.y.2.9.- 9.9.3.3.",
"kXjXdXdXjX.XdXdXdX.XL. X.X.Xi dXjXkXkXkXkXXXjXjXjXXX@ z x HXG.XX,XG.4XjXK.HXF @ 2 S.kXdXjXdX.X[.hXdXdXdXjXkXdXkXjXkXjXkXdXkXjX.X",
"x.h.j.j.j.j.j.h.j.d.I.}.a.a.a !.s.d.j.d.d.j.d.j.d.d.K @ :Xx b.S.L NX;Xl.rX* vXj.LX{ j.j.d.h.j.g.sXj.j.d.p.d.d.d.j.j.j.k.l.d.d.d.",
"5.8.5.5.5.8.5.8.8.8.e.].i.0.a R.8.8.5.8.5.8.8.5.8.0.G nXb.5.8.;XvXt.D 5XA 5.$ bXL $ 5.5.5.5.5.u.[.5.3.8.5.5.5.5.5.5.5.5.5.5.3.5.",
"d.d.j.d.d.d.d.d.p.s.e.s.s.s.a i.i.p.p.d.s.p.p.9.p.i.* x $ F.d.S.vXk.V.x P d.$ l J.@ d.d.d.d.d.g.g.u.p.u.u.s.d.d.d.d.s.d.p.p.u.u.",
"c.: !./.!.~.~.~./.!.!.!.~.!./.!.~.!.!.' !.!.!.!.!.3 x ].xX'.=X% ~.LXG ~.L h F.b.l ].!.~.~.!.!.~.(.!.} R.~.!.~.!.!.!.~.~.~.~.~.Q.",
"Y : ! ! ! ! ! ! W W W W W W ! W ! W ! ` W W W E W 1 2 ^ l LX@.* P.N VX2 ! G vX~ Q w.E ~ ~ ! ! W W W ` 1.W R R W W R R R W W R R ",
"u : q y y u y y y : 0 e 0 e e e e e e : y y q y y % H.  A D HX-XV e 2 wX2 LX  bX@ V > > > > > > y y : > y y y y y r r e e e e r ",
"q.q.i.q.i.i.i.i.q.i.q.q.i.q.i.q.i.q.q.i.q.i.i.p.d.q.1 V i.q.D D q.$ i.@.L   q.% % a.i.e.+ k.i.i.i.p.i.s.q.q.q.i.i.i.i.i.q.i.q.i.",
"!.W.!.!.!.!.R.!.W.E.E.E.c.E.E.E.c.E.E.c.E.c.c.E.c.c.c.E.v.c.v.v.v.v.c.c.c.c.c.c.E.E.c.E.- W.W.E.R.R.!./.!.!.!.W.c.c.c.E.c.c.E.c.",
"w r w w u r u w u u u i u u r y u u u w w w w w w r 0 r e u 9 e t y y u u q y y y u y q ; y e y u u y y y r y w u y q q e e e y ",
"x.j.h.h.U.dXh.h.h.h.h.h.h.a.v }.x.x.h.h.x.l.j.l.h.j.l.h.l.x.z.z.l.h.h.h.j.L.}.x.h.h.h.z.l.x.x.x.x.x.w. Xh.j.h.l.l.h.l.h.h.d.h.h.",
"x.c.z.z._.dX(.).).].).).).{.)  X}.{.}. X|.k.k.z.x.{. X}.k.k.k.k.z.v.z.k.W.I.|.}.|.|.|.|. Xl.d.l.z.{.f.|.|.}.|. Xk.k.k.z.c.c.c.c.",
"XXXX.X X`.kX.X.XXXdX.X.X.X.X_  X.XXX.X X X.X X.X.X.X X.X XXX{. X}. X X X|.I..X.X.XXX X.X X.X X.X X Xf. X X.X X.X.X.XR. X X X X X",
"~.Q.~.Q.Q.Q.Q.Q.Q.Q.@.Q.~.~.Q.Q.Q.Q.~.Q.Q.Q.Q.Q.- Q.Q.Q.Q.Q.Q.Q.v.Q.v.Q.Q.Q.Q.Q.Q.Q.~.Q.d Q.Q.Q.Q.~.~.Q.~.~.Q.Q.~.Q.Q.; Q.~.Q.~.",
";.;.i.p.p.p.p.q.+. .' l.&.+.+.+.+.&.;.+.&.;.&.;.: ;.&.;.+.;.;.+.+.;.k.q.k.q.4.,.p.d.,.,.a #.W E E E E Q E R Q Q T R T ; p.p.i.p."
};
