/* XPM */
static char *result[] = {
/* columns rows colors chars-per-pixel */
"64 64 256 2 ",
"   c #0B0A07",
".  c #180905",
"X  c #18140B",
"o  c #090B19",
"O  c #190918",
"+  c #0A1219",
"@  c #161417",
"#  c #250704",
"$  c #380600",
"%  c #34110F",
"&  c #280916",
"*  c #24131B",
"=  c #3C2519",
"-  c #080C24",
";  c #180B24",
":  c #0A1527",
">  c #151728",
",  c #181236",
"<  c #270826",
"1  c #3C0C25",
"2  c #360A28",
"3  c #3C0B2A",
"4  c #281526",
"5  c #3B1429",
"6  c #2A1536",
"7  c #3A1936",
"8  c #16242F",
"9  c #2F2B34",
"0  c #470501",
"q  c #520602",
"w  c #48130E",
"e  c #4A1619",
"r  c #4B131D",
"t  c #55171A",
"y  c #6B100C",
"u  c #512904",
"i  c #702817",
"p  c #430C25",
"a  c #4A0C27",
"s  c #430C2A",
"d  c #441225",
"f  c #4A1222",
"g  c #451A21",
"h  c #44122A",
"j  c #4B112B",
"k  c #4C142F",
"l  c #571828",
"z  c #6B1928",
"x  c #4D2A2D",
"c  c #552825",
"v  c #592635",
"b  c #76272A",
"n  c #7A2A2A",
"m  c #6D332E",
"M  c #662639",
"N  c #792838",
"B  c #77373A",
"V  c #624523",
"C  c #6E4F3A",
"Z  c #1F114E",
"A  c #2E144F",
"S  c #333246",
"D  c #311263",
"F  c #3D216F",
"G  c #542F4A",
"H  c #6F2F49",
"J  c #42176F",
"K  c #5A2765",
"L  c #4F2D79",
"P  c #714D4D",
"I  c #794848",
"U  c #555069",
"Y  c #6A516D",
"T  c #796C6F",
"R  c #8F340C",
"E  c #8B3827",
"W  c #933B27",
"Q  c #8A3032",
"!  c #88383A",
"~  c #A33C30",
"^  c #AA521C",
"/  c #8E6514",
"(  c #954737",
")  c #914D30",
"_  c #B9562C",
"`  c #A74537",
"'  c #AD5233",
"]  c #AE6733",
"[  c #D37518",
"{  c #C55D2F",
"}  c #C75D33",
"|  c #C8612E",
" . c #CB6331",
".. c #C7623D",
"X. c #D56A35",
"o. c #D76937",
"O. c #CD7F3D",
"+. c #D9773A",
"@. c #DD743C",
"#. c #DE7A39",
"$. c #E27E2B",
"%. c #E4763C",
"&. c #E27C3D",
"*. c #893947",
"=. c #894848",
"-. c #964846",
";. c #93594F",
":. c #874956",
">. c #A64846",
",. c #A75648",
"<. c #B05650",
"1. c #9A6754",
"2. c #AF6F51",
"3. c #B66759",
"4. c #955864",
"5. c #927271",
"6. c #AB706A",
"7. c #C75948",
"8. c #CC5D53",
"9. c #CC6D4D",
"0. c #E56F40",
"q. c #E57943",
"w. c #EB7D44",
"e. c #CA7C6E",
"r. c #E98D17",
"t. c #C89A2A",
"y. c #D68930",
"u. c #E7873B",
"i. c #E89230",
"p. c #FDB634",
"a. c #FBC42C",
"s. c #FEC637",
"d. c #B08955",
"f. c #978879",
"g. c #B08D6F",
"h. c #D18A51",
"j. c #D88855",
"k. c #ED8243",
"l. c #E98546",
"z. c #EC8C43",
"x. c #F08446",
"c. c #F28C46",
"v. c #F28D49",
"b. c #EB9348",
"n. c #F3934C",
"m. c #F49A4D",
"M. c #F79B4D",
"N. c #E68C56",
"B. c #E79357",
"V. c #F59C51",
"C. c #F69855",
"Z. c #F99C52",
"A. c #D4AB52",
"S. c #F1A248",
"D. c #FBA34D",
"F. c #EBAE50",
"G. c #F4A353",
"H. c #FCA552",
"J. c #FAA955",
"K. c #F8A659",
"L. c #FDAC5D",
"P. c #FDB25E",
"I. c #F8B95A",
"U. c #C98667",
"Y. c #CF906F",
"T. c #EA9A6A",
"R. c #D4AD74",
"E. c #EBA668",
"W. c #F8A762",
"Q. c #FEAD62",
"!. c #FEB463",
"~. c #FCBA65",
"^. c #F4B56A",
"/. c #FEB669",
"(. c #FCBB6B",
"). c #E9A677",
"_. c #EBB274",
"`. c #F7BD73",
"'. c #FBBE72",
"]. c #FAB876",
"[. c #F1C751",
"{. c #DCC16A",
"}. c #F5CD67",
"|. c #FEC26D",
" X c #EECA77",
".X c #FEC373",
"XX c #FCC579",
"oX c #FFCC7D",
"OX c #FFD17E",
"+X c #59368B",
"@X c #70398C",
"#X c #73698A",
"$X c #8C669C",
"%X c #B07A88",
"&X c #798297",
"*X c #928B8E",
"=X c #B48E8A",
"-X c #AFA793",
";X c #8D8FAC",
":X c #A993AC",
">X c #AFA3B0",
",X c #CB9488",
"<X c #D7A38B",
"1X c #D0AD91",
"2X c #D8A79C",
"3X c #EDB387",
"4X c #E9B5AC",
"5X c #D9C389",
"6X c #FECD83",
"7X c #FDC987",
"8X c #FFD284",
"9X c #FEDA86",
"0X c #FED48B",
"qX c #FDD98D",
"wX c #E6C890",
"eX c #F6C89D",
"rX c #FED592",
"tX c #FED993",
"yX c #F7D59C",
"uX c #FEDD9D",
"iX c #FEE298",
"pX c #D5C6AF",
"aX c #E7CDA9",
"sX c #FACDA2",
"dX c #F4CCA8",
"fX c #FCD6A6",
"gX c #FCDCB9",
"hX c #FDE5A9",
"jX c #FEE6AC",
"kX c #FFF7A9",
"lX c #FEE5B4",
"zX c #FEECB4",
"xX c #FEEDBA",
"cX c #FFF5B8",
"vX c #FEF1BD",
"bX c #9EA3C2",
"nX c #B0B1C7",
"mX c #EBBECB",
"MX c #BCC5D6",
"NX c #D8DFDD",
"BX c #FADCC4",
"VX c #F4D2D4",
"CX c #FDE3C5",
"ZX c #F7ECC2",
"AX c #FEEDC2",
"SX c #FFE5CA",
"DX c #FFEACC",
"FX c #FEF2C4",
"GX c #FEF3C9",
"HX c #FFEDD2",
"JX c #FFE7D9",
"KX c #FFF4D4",
"LX c #F6D7F3",
"PX c #FCE8E6",
"IX c #F9EDF0",
"UX c #FEF9FA",
/* pixels */
"m.m.n.m.C.m.m.C.C.V.Z.Z.Z.Z.Z.C.M.V.G.Z.Z.V.V.V.K.Z.U.|.G.D.J.J.J.1 C.C.C.C.Z.Z.M.C.m.M.C.Z.Z.Z.Z.M.M.Z.C.m.m.Z.C.m.C.2 V.Z.C.m.",
"w.q.q.w.q.q.q.%.q.l.w.w.w.w.w.c.x.x.x.w.x.x.x.k.x.l.3.k.k.w.k.w.w.p 0.w.x.l.w.w.w.w.w.w.w.w.u.k.w.w.w.x.k.w.w.k.k.k.l.3 q.q.q.q.",
"HXDXSXSXZXSXCXCXSXBX,XdXdXdXdXdXdXgXdX%XBXBXBXBXBXgXCXCXCXCXCXSXSXSXSXSXSX%XdXdXdXgXfXfXv BXBXBXBXSXU.BXBXSXCXCXSXSXSXDXSXSXSXDX",
"n n n b b b z b M n H /.E E E E E W W P '.Q b b b b N b n n n n n b b n E I V.E W E W W l 7XQ.L.Q./.e.7Xb b b b b b b b b b n n ",
"rX0XrXtXrXtXtXtXrXrX)..XC.m.m.Z.Z.Z.H.q.XXtXtXtXrX8 - + > 8 : : P qXrXtXrX).N.b.n.n.Z.Z.B rX0X0X0X0X).tXrXrXqXrXtX0X0XXXtXrXrXrX",
"0X8X0X8X0X0X8X0X0X8X).K.v.v.v.v.v.c.c.l.8X8X8X= 4 @ 8 8 - : > > : 9 8X6X0XT.n.v.v.c.x.c.*./././././.j.7X6X6X8X8X8X0X0X0X0X8X0X8X",
"f r f r f f f g f r d d r t t t t r e f f f r @ 8 : - : : o o - + : r r r 1 p r r r r r 1 f a r a p f f r r r r f r f r r f f d ",
"8X8X8X8X_.0XOXoXoX8X8X8X8X8XOXOXOXOXOXOXOXOXOXoX7 O ; O + > o - + 8 OXOXoXOX6XoX6X8X8X8X8X8X0X7XfXrX8X0X0X8X8X8X8XOXOXXX8XOX8X8X",
"(.G.G.(.^.+.#.&.u.z.V.|.|.(.~.(.#.#.#.#.#.#.+.+.h 4.4.1.P & O ; + * b.b.~..X.X|..XJ..XF..X.X.X'.eX.X.X.X|.~.!.#.#.&.#.u.#.u.+.+.",
"J.D.~.K.C.XX|..X|.|.m.V.G.G.G.~.~.(.~.(.~.~.(./.$ e.e.0 0 ;.d # X |.|.|.(.~.~.(.|.J.K.J.G.J.J.K.3X|.z.z.(.(.~.~.~.~.~.~.(.~.~.(.",
"(.(.(..X^.].(.(.(.m.L.!.!.~.~.~.~.~.~.~.~.!.~.!.5 c ;.q ) 3.m C :.x ~.~.!./.(.!.~.K.P.!.!.!.!./.3X~.!.~.~.~.(.~.~.~.!.~.~.~.~.~.",
"1 p 3 s s s s s p p s p p p p p p a a a p p p p 5 6.6.3.3.2.=.;.4.v p 1 a p a p a p a a s p p 1 3 a p 1 a 5 f d f p d a a p 1 s ",
"Q.!./.!.~.!.~.!.~.P.!.P.P.!.P.~.!.!.P.Y.tX!././.(.c C 6.6.I . H H I.E././.,XhX!.~.~.!.lXzX`.~.~.~.(.!.(./.3 !.!.~.!.!.!.~.~.!.~.",
"jXjXjXhXhXhXjXhXhXhXhXhXjXhXhXhXhXhXhX).zXlXjX1X1X. # & . . % v I w 2Xm wX).lXjXlXjXjXjXlXjXlXlXjXjXjXhXjX3 0XoXjXlXjXhXhXhXhXhX",
"(.(.(.~.(.~.(.(.(.(.(.`.`.|.|.(./.(.) ) ( E Y.U.1X# @ O ; < t ;.B aXJXJX4XC 1.(.(.]./.(.(.(.(.(.(.(.(.(.'.3 ~./.(.~./.(.(./.(.(.",
"L.L.L.Q.Q.Q.L.Q.Q.!.Q.Q.Q.W.W.Y.m ) 9.9.8.8.>.C <X. O O < M ! <.;.PXSXgX4X6.2.j.L.L.L.Q.L.Q.Q.Q.W.Q.W.Q.W.< L.L.K.L.Q.Q.Q.Q.L.L.",
"fXsXsXsXsXsXsXeXyXsXsXg.1X4XUXgX) 2.| 9.8.7.8.BX! VXH H *.4.' E ;.JXcX1Xu ,X2.n sXsXsXsXsXsXyX4XJXDXDXDXSXSXDXCX2 fXsX3 sXsXsXfX",
"{ { } } N.I.!.!.I.% I 9.UXUXIXBX' ` 7.} 7.8.W >.c ,XPXPXQ Q ( ) m GXkX X1X6.3.n K. . .G.G.V.D.E.BX%.%.%.%.%.%.&.2 z.b.3 _ _ _ _ ",
"c.x.v.c.v.c.n.n.c =.=.PXUXNXIXVX=.Q W 8.7.} _ ) u 3XR.KXLX%XH UXeXzXF.[.,X6.-.n +.#.q.%.m.m. .O.BX/.!.!.(.@.@.o.6 M.n.1 |  . .o.",
"o.o.o.o.o.o.o.o.c ) IXJXIXIXUXUXVXH b n *.` ` ' u R.^.A.BXC P aXR.A.[.I.<X5.r w X.o.o.o.o.d.A.OXV ).Z.Z.Z.C.C.C.2 o.o.1 X.X.o.o.",
"fXfXfXfX<XHXGXDXc ( 4XPX-XbXnXbX:X& x M M H ~ >.u  X[.s.[.}.}.}.[.[.V A.,XY 2 fXfXfXfXdXA./ / }.(.R 2.GXKXHXHXHXHXHXHXHXHXHXHXKX",
"K.K.K.K.Y.fX/./.i ,.<.I O *X*X%X5.!.!.& & p b ( u  X[.a.a.s.A.A.t.A.{.R.=X7 , C.V.V.S.h.}.[.}.s.}.i.l./.~.!.!.!./.!.!.!./.!.!.!.",
"K.K.K.J.B.hX/.~.t ( 3.=.= Q.~.Q.P.!.Q.* Y 6 = KXkX[.X X / / % %   X X X f.5.g.(.!.I._ y.S.I.P.R r.p.$.^ ) ^.~.!.~.!.^.Q.^.W.Q.Q.",
"J.G.G.K.B.Q.Q.Q.t B 6.b !.!.!.!.!.L.!.^.V pXKXFX}.[.X 5XX 5XR.= g.X C X 5.6.L.L.L.P.9.&.b.b.B.B.i.i.%._ ( /.Q.Q.Q.Q.Q.!.!.!.!.!.",
"GXGXGXGXGXGXGXFXg H 6.c AXGXd GXGXGXGXFXU.hXkX[.[.[.# #  X$ [.[.5XwXd.# O -XGXGXDXGX0 q q q q q 0 0 ).0 # GXGXFX6 GXGXGXGXGXGXGX",
"~.!.!.~.~.~.(.(.U.VXPXyX/.!.k tX!./.!.!.O.u.i.p.s.[.d. X5XA.[.[.d.= A.2.:Xf././.!.!.6.Y.Y.q q ,X<X0 0 4.P !.!.(.6 !.!.!.!.!.!.~.",
".X(.(.(.(.(.(..XU.=XUXyX`.(.M tX/.!.~..Xu.r.r.a.a.a.[.iX$ = {.{.= w Y.Y.;X*XY.^./.(.>.8.2.i ] 9.9.9.y ( H .X.X|.3 /.^./.(.(.|..X",
"Q.Q.P.L.L.L.K.L.L.U.PXE.!.~.M L.!.P.P.h.r.p.a.a.a.s.[.cXT IXpXC x =XY.=XMXMXY.!.H.e.l Q ' q y o.{ y <.-.B P.L.P.2 Q.Q.Q.L.!.L.Q.",
"0X2 tXtXtXtXtXrXqXx B i tXrXtXtXtXtXtXh.p.p.s.a.a.p. X= m mXwXaX>XA 1X=X>XnXMXUXUXVXH Q Q ` { } y >.>.U.qXtXtXtXtXqXtX1 FXFXvXxX",
"l.2 u.#.(.^./.(.(.c -.8.) (.(.(.(.(.|.2.y.r.p.s.r.r. X= = e  X% % S |.5.f.5.T nXnX4 Y a *.>.~ ` q :.I ^.(.~.~.~.~.~.L.2 `.Q.L.Q.",
"b.2 Z.C.Z.m.Z.M.G.t 3.7.<.,.D.V.Z.m.m.n./ y.y.i.r.[ S.kXDXDXB.B.Y.M.C.S.m.e.f.T ;X6 7 H *.z t e m.m.C.C.u.u.l.l.I.K.^.2 _.K.K.K.",
"q.2 @.0.@.%.%.0.%.t ~ } <.! q.@.@.0.@.@.# ) ' ] [ y.h.h.h.2.^ ^ %.%.%.q.%.6.b.2.3.P I 3 H z 1 w.&.l.q.q.q.l.z.v.v.v.n.1 K.Z.C.J.",
"FXFXFXFXFXFXFXFXGXc ~ 3.z B ZXGXGXGXZX,X< , & X . . # $ q ^ $ u FXFXFXFXvXFXvXFXGXGXFXGX4 4 FXFXGXFXY.KXGXGXAXGXhXFXFXvXGXFXFXGX",
".X(..X(..X(..X(.`.l i ( /.M ^.'.'.(./.:X, Z A D L U UXVX).j.d.] |.(.(.~.^.~.(.(.(.'.`.'.(..X'.'.'.(.Y.fX~.|.`.'.'.(..X'.(.'.|.(.",
"H.H.H.H.H.H.H.H.H.c w -.D.e H.H.H.G.D.g.< Z F J F L LXY IXfX_.] H.P.J.J.H.J.J.J.J.J.J.G.Z.H.H.H.H.H.Y.yXJ.D.H.D.H.H.D.J.H.H.J.H.",
"(.!./.(.!.~.!.!.Q.d.% M 5.~.!.!.!.!.L.f.4Xk Z D J +X+XU LXP HX3X3XyXE.!.!.~.!././.!.!.P.!.!././././.Y.!.P.!.!.!.!.(.~.!.!.!.P.!.",
"uXtXqXiX<XGXAXGXAXAXgX=X5.AXAXAXAXFXFXd.2.6.$XD F L F L L Y LX:.VX;.4.<X0X6.uXtXqXrXqXyXM SXAXGXGXDXDXFXxXAXxXGXFXFXvX1 tXqXqXqX",
"(.P.P.~.E.uX8X6X6X6X8X8X0X6X0X0X0X7X7X).9.Y.v :XA A D L J +X+X$XH 4X%X4.E.U.V.N.j.l.l.q.B 0X0X0X6X0X0X8X7X0X6X0X0X6X6X1 Q.K.W.Q.",
"(.(.(.J.G.7X!.Q.!.L.P.P.L.P.P.L.L.!.Q.T.XXj.j.e.5 6 A D +X+XJ @XK :.-.3.3.e.{  .X.@.#.q.B .X/.Q.!.!.Q.Q.Q.!.Q.!.L.Q.L.1 XXXX}.|.",
"(.(.(..X^.fXtXtXrXrXrXrXyXrXrXrXrXrX0XE.=.` q.j.,X% >XA D J @XK H 4.E <.<.9.B v.v.n.b.v.B tXtXrX0X0X0X0X0XqX0XqX0X0XoX1 .X.X|..X",
"5 h s s s 3 s s s s s s a h h 5 d a 3 3 P -.( N.h.h.gX= :XZ J K M Q Q >.~ 7.7.( h p s s 1 3 s s 3 s s a p a 3 s 5 1 1 1 3 1 p p ",
"' ' ^ ' _ w.+.0.v.n.;.P.' l.1 G.V.G.P.J.g.1 %X( ^ N.U.4XLX#XA A H z *.Q ` ~ } 7.( 1.L.L.L.(.!.E.3X .m.m.m.n.m.M.2  .m.m.m.m.| | ",
"z.m.v.n.n.n.v.v.n.v.q.v.z.b.t .X.X|.(.K.@ S Y 5.6.;.' j.<XIX>XS H N *.*.Q ~ R _ 7.( m.V.P.I.~./.7Xc.c.v.n.n.n.m.2 v.l.k.k.k.z.c.",
"c.k.c.c.x.v.x.x.#.+...z.v.z.l n.b.h.h.h.+ - - bX5 *X;.i 2.6.IX6 k z k M N *.~ ` 9.,.% b.b.m.n.B.N.x.x.c.c.z.c.z.2 b.c.v.v.z.x.z.",
"3 5 1 s h 5 s s s 3 3 1 p s 5 7 < 6 k 4 - o : - S U O 3 d G G G 2 < & x k a a b Q ;.e 3 3 p h p s s p p p f a d 3 h 1 1 d 5 h a ",
"H.K.~.~.T.yXK.K.J.g.2.& ; - -XT 7 h 7 7 O o + : : o /.L.I.I.g.g.%.2 m.% h G M z z M 1 G.k 0XP.P./.!.P.!.!.P.P.P.!.I.P.2 |.~.~.(.",
"(.m.n..XW.6XXXoXXX*X5.& ; ;XbX$X7 G 7 A ; o : o - o .X.X|.|..X|.'.1 .X.X1.1 b H z a 5 1.m iXhXhXuXhXuXfXfXuXtXuXuXuXuX1 &.l.u.u.",
"/.(..X6X`.6X|.|./.f.T & ; ;X>X;X9 5 G 7 5 9 9 : o ^.(.|.(.(.(.(.(.p (.(.~.1 b -.N l k I B 9X0X0X0X0X0X8X0X0X0X0X0X0X8X1 (.~.(.|.",
"K.Z.C.C.T.C.C.C.M.f.-XU ; &X#X;X5.; 4 4 @ 4 9 o c V.Z.C.m.m.n.n.n.p n.n.m.7 m ` >.>.! l B W.W.W.C.W.W.C.K.W.W.K.K.W.K.1 H.G.Z.Z.",
"GXGXFXGXFXAXxXAXAXAX*X>XY - , : o GXFXFXFXFXFXFXcXcX=XzXvXFXAXGXFXFXGXGXFXaXB z ~ 8.<.Q g xXxXgXHXFXGXGXFXFXFXFXGXAXFXGXGXAXvXFX",
".X'..X`.`.'.'..X(.(.<X:Xo - : : (.(.`.(..X`.`.'.(.~.Y.hX'.(.`.(.(.`.'..X`.^.h M ! *.,.,.t (.`.].CX'.(.(.(.(.(.(.(.'.'.'..X(.(.(.",
"H.D.D.D.D.D.D.D.H.H.,X:X; - : Y D.H.D.H.D.H.D.D.H.P.Y.uXD.D.D.D.D.D.D.D.D.D.D.5 l *.<.,.,.m D.L.gXH.D.H.D.D.D.D.D.D.D.D.D.D.M.H.",
"'.(.(.(.(.(.(.(.(.(.U.f.o o - : V `.^.`.!.(.!.J.!./.Y.(.!./.(././.(.(./.(.(.!.!.p f ! 3.1.).R.].].Q.(.!.Q./.(.(.!.(.(./.~.!.!.Q.",
"XX3 rXrXqXqXqXtXtXtX3X*XU > - - G qX9X2.tX0X0X0X0X0X0XqXqXtXqX9XqXqXqXtXqX9X0XqXR.1 f I <XKX7XtXtX0X4.0X0X0XqX0XqXqX0XqXqXqXqX9X",
"_ 3 o.o.o.X.X.X. . . .] U - o > = X.X.,. . .|  .| | | &.u.%.@.@.o.X.X.X. .X.X.X. . .5 Y IXUXpXf.@ @ ,.C. .}  . .} |  . .} } } | ",
"s s h h h a h s h 1 p 5 g G S 9 d d d 1 h h h h h h 5 d 5 d d 1 g p d 1 5 1 1 5 5 5 x T nXIXUXUX> :   2 h h d h j f d d f g d d ",
"!.!.P.!.!.!.!.!.P.!.P.P.B.d.2.E.P.!.P.P.P.!.!.!.(.!.P.!.!.!.!.!.!.P.!.P.!.!.!.!.!.!.P.E.;XnXIXUX: + S + 8 9 S 9 !.!.!.P.P.!.P.P.",
"8X8X9X0X0X0X8X0X8X6X6X6X8X6X6XOX6X7XoX6X6XoX6X6XoX6XoX6XoXoXoXoX6XoXoXoXXXXXXX6X7X7XoX6XG :XnXNX: 9 + : @ 8 8 + d.oXoXoX6XoXoX6X",
"a a a a a j j a j j j j j h 5 h j j k a j j a a a a j d f j j h j j j j j s j h h k a 3 5 &X;X: 8 : + 8 X 9   IXs d h h d h d h ",
"XX'.`.].3XxX'.`.`.`.'.'.`.|.H hXXX'.'.`..X'.'..X'.'.`.(.XXXXXX.X`.`.`.`.].,XjXXX`.`.`.XXoX+ @ X X @ @   X f.NXNXT XX.X`.`.^.`..X",
"XXXXoX.XsXAXtXuXiXfXuXuXuXhX=.xXhXhXhXlXlX|.|..XXXhXlXjX|.|.|.|.oX.XoX'.8X3XjXjXjXjXlXjXzX) ] ] ] 1.R.2XpX-Xf.f.|.|.|.oXoXXXoXOX",
"vXFXxXzXdXDXxXxXvXxXAXxXxXxX:.zXxXxXxXzXzXcXzXzXcXxXzXxXzXzXhXkXkXzXlXxXlX<XxXxXxXzXcXxXvX;.U.] T.] ).g.hX*XaXcXxXxX7XzXzXzXzXzX",
"qXqX9X9XX @ X X @ X X @ X X X @ X @ X @ @ @ @   o @ @ + + @ + + + @ @ @ @ @ + > o > > o @ . . * # .   X   X + + + o 9X2 qX9X9X0X",
"z.b.~.~.(.~.~.^.u.#.2..Xb.u.c.u.u.z.b.u.u.z.b.z.1 b.b.z.b.u.z.z.z.l.~.~.~.~.S.b.|.~.n.m.v B. .| | |  .| | | | } } | { 2 ~.~.I.~."
};
