/* XPM */
static char *result[] = {
/* columns rows colors chars-per-pixel */
"64 64 256 2 ",
"   c #0A0708",
".  c #1A0905",
"X  c #0C1208",
"o  c #161207",
"O  c #080A19",
"+  c #140A18",
"@  c #091116",
"#  c #0E121B",
"$  c #151317",
"%  c #280804",
"&  c #390904",
"*  c #30150D",
"=  c #260718",
"-  c #360C1C",
";  c #1B201E",
":  c #382216",
">  c #070B24",
",  c #160C27",
"<  c #091526",
"1  c #161929",
"2  c #0E1832",
"3  c #3A0724",
"4  c #3C0C25",
"5  c #340A2B",
"6  c #3C0C2A",
"7  c #271525",
"8  c #3C112B",
"9  c #391528",
"0  c #280F30",
"q  c #381837",
"w  c #192330",
"e  c #332A2F",
"r  c #272936",
"t  c #470600",
"y  c #4F0B09",
"u  c #49161B",
"i  c #4B121D",
"p  c #52151A",
"a  c #67120D",
"s  c #51270C",
"d  c #70280D",
"f  c #430C25",
"g  c #430C2A",
"h  c #4A0C28",
"j  c #441225",
"k  c #4A1222",
"l  c #481C25",
"z  c #43122A",
"x  c #4A112B",
"c  c #551A27",
"v  c #51152F",
"b  c #6E1C2A",
"n  c #572528",
"m  c #5A2736",
"M  c #512E32",
"N  c #77282A",
"B  c #6B2F30",
"V  c #772939",
"C  c #783638",
"Z  c #5F4D2A",
"A  c #714B3C",
"S  c #2D1254",
"D  c #242146",
"F  c #2D1663",
"G  c #33246A",
"H  c #501A59",
"J  c #512D47",
"K  c #6B314B",
"L  c #4C2C73",
"P  c #6B327A",
"I  c #754549",
"U  c #6F504F",
"Y  c #5A546B",
"T  c #6C4F6B",
"R  c #5E606D",
"E  c #756972",
"W  c #94351E",
"Q  c #8B3828",
"!  c #90382F",
"~  c #863838",
"^  c #A83E2E",
"/  c #AC5415",
"(  c #95671A",
")  c #884737",
"_  c #974837",
"`  c #915033",
"'  c #BB552D",
"]  c #AA4E35",
"[  c #B95835",
"{  c #AE6936",
"}  c #E17E19",
"|  c #C35C2F",
" . c #C65E32",
".. c #C8622E",
"X. c #CB6331",
"o. c #C76338",
"O. c #D56A35",
"+. c #D76838",
"@. c #CC7A38",
"#. c #DC773A",
"$. c #DE7A3A",
"%. c #E77C2E",
"&. c #E2723E",
"*. c #E27C3D",
"=. c #883948",
"-. c #894A48",
";. c #964544",
":. c #925651",
">. c #A84846",
",. c #A85849",
"<. c #B85849",
"1. c #AE5553",
"2. c #9A6B50",
"3. c #A96746",
"4. c #B86A58",
"5. c #B17152",
"6. c #8F5166",
"7. c #A05B60",
"8. c #8E6E6D",
"9. c #A9736B",
"0. c #C85946",
"q. c #CB574E",
"w. c #CF6F50",
"e. c #E67447",
"r. c #E57843",
"t. c #EB7D44",
"y. c #CA7A6A",
"u. c #BCA435",
"i. c #DB8A18",
"p. c #E89D1F",
"a. c #DA8A2F",
"s. c #EC9428",
"d. c #E6863B",
"f. c #F6B535",
"g. c #FDC527",
"h. c #EBC53E",
"j. c #FBC63A",
"k. c #B88850",
"l. c #BFA15F",
"z. c #938676",
"x. c #AE8971",
"c. c #D18A51",
"v. c #DB985B",
"b. c #ED8243",
"n. c #EA8547",
"m. c #EC8C43",
"M. c #F08446",
"N. c #F28C46",
"B. c #F28D49",
"V. c #EC9647",
"C. c #F3944C",
"Z. c #F49B4D",
"A. c #F79A4D",
"S. c #E79258",
"D. c #F69B51",
"F. c #F69955",
"G. c #F99C52",
"H. c #DBB150",
"J. c #F3A24D",
"K. c #FBA34D",
"L. c #ECA757",
"P. c #F5A453",
"I. c #FCA552",
"U. c #FAA955",
"Y. c #F8A75A",
"T. c #FDAC5D",
"R. c #FDB15E",
"E. c #F2BF5A",
"W. c #C78567",
"Q. c #D28F6F",
"!. c #E7996D",
"~. c #D4AC75",
"^. c #E9A568",
"/. c #F6A862",
"(. c #FDAD62",
"). c #FEB463",
"_. c #FCBA65",
"`. c #F5B56A",
"'. c #FEB569",
"]. c #FDBB6B",
"[. c #E8A577",
"{. c #E5B771",
"}. c #F9B774",
"|. c #F6BC73",
" X c #FBBE72",
".X c #EEC74F",
"XX c #FAC658",
"oX c #DCC473",
"OX c #FAC863",
"+X c #FEC16D",
"@X c #E9C374",
"#X c #FEC373",
"$X c #FBC776",
"%X c #FCC479",
"&X c #FFCC7C",
"*X c #FFD27E",
"=X c #553787",
"-X c #6C378F",
";X c #6F5E83",
":X c #8B7B94",
">X c #A67593",
",X c #C17F81",
"<X c #91858F",
"1X c #B2908B",
"2X c #898AAB",
"3X c #AF9AAB",
"4X c #A8A6B8",
"5X c #CA9387",
"6X c #E49C86",
"7X c #D3AC8D",
"8X c #EFB48C",
"9X c #D4B0AD",
"0X c #E8B4AD",
"qX c #D7C59A",
"wX c #FECD83",
"eX c #FCCA88",
"rX c #FFD284",
"tX c #FED987",
"yX c #FED48A",
"uX c #FDD98D",
"iX c #EDC793",
"pX c #FED592",
"aX c #FEDA93",
"sX c #FEDC9D",
"dX c #FFE698",
"fX c #F4CCA7",
"gX c #FACDA3",
"hX c #EEDDAC",
"jX c #FBD1A5",
"kX c #FBD5A8",
"lX c #FCDDBA",
"zX c #FEE6A8",
"xX c #FEE6AC",
"cX c #FFFAA2",
"vX c #FDE6B2",
"bX c #FEECB4",
"nX c #FEEDBA",
"mX c #FFF7B9",
"MX c #FEF1BD",
"NX c #A19FC6",
"BX c #B0B2CB",
"VX c #B7CADB",
"CX c #FBDBC5",
"ZX c #F2CFD1",
"AX c #FFEDC2",
"SX c #FEE7C8",
"DX c #FFE5CA",
"FX c #FEF3C4",
"GX c #FFF3CA",
"HX c #FEECD6",
"JX c #FFF1D5",
"KX c #F4D7EF",
"LX c #DBE2E3",
"PX c #FFEAE7",
"IX c #F9EEF0",
"UX c #FBF8F9",
/* pixels */
"C.C.C.C.A.A.A.Z.F.D.G.G.G.G.G.G.G.G.G.G.F.F.G.G.P.Y.y.OXK.I.U.U.U.3 F.G.G.F.D.D.A.A.Z.Z.C.G.A.G.G.A.A.G.A.A.G.A.D.D.F.6 F.D.D.D.",
"b.t.t.t.t.*.r.&.e.t.t.t.t.t.t.B.M.M.M.M.M.n.M.M.M.M.4.b.t.*.t.b.t.f e.t.t.n.t.t.t.b.t.t.M.t.b.b.b.b.b.b.t.*.t.t.t.t.n.6 r.r.r.r.",
"HXGXDXDXAXSXCXDXHXSX1XfXfXfXfXfXkXkXgX>XCXCXSXCXCXCXCXSXSXSXSXAXDXDXDXSXSX,XfXfXgXjXkXjXm CXCXCXDXDX9.DXSXSXSXSXSXSXDXDXDXGXSXSX",
"N N N N b B b N b N K '.Q Q Q Q Q Q W -. XN N N N b N N N N N N N N N N C I G.Q Q _ ! ! v eX(.T.(.(.y.yXN N b N N N N N N N N N ",
"pXyXpXaXaXaXaXaXaXaX[.$XZ.A.C.G.G.G.P.c.%XaXaXaXpXyXyXyXyXyXrXU w # 1 w O # ; V.B.C.Z.G.C pXyXyXyXyX!.pXpXpXpXpXpXyXyX%XaXpXpXpX",
"yXrXrXyXyXyXyXtXyXwX[.Y.B.C.B.B.N.N.B.n.rXwXyXrXrXyXyXrXyXrXe < 2 1 2 > 2 w # w : B.m.N.~ ].'.'.'.'.v.wXwXeXrXrXrXyXyXyXyXyXyXrX",
"k i k i k i k k k i j i p p p p p p i k k k i p k i i i i i w O O O > < 2 > 2 w   k i i g k k h k f k k k i i i k k i i k k f k ",
"rXrXrXrX[.uX*X*XwXwXrXrXyXrX*XrX*X*X*X*X*X*X*X&X8 rXrXrXwXwXr @ + , + + + $ $ U wXrXrXwXyXrXyXeXjXpXyXyXrXrXrXrX*X*X&X&XrX*X*XrX",
"].P.P._.`.#.$.*.d.m.D.+X+X].]._.#.$.$.$.$.$.#.#.4 d.$.#.$.$.e # + = = U 7.9.:.#X#XU.$XU.#X#X#X#XeX#X+X#X].+X).#.#.*.$.d.$.d.#.$.",
"U.P._.Y.Y.%X+X#X].+XD.D.J.P.L._._.]._._._._._.`.9 +X_.].OX_.v.* = - :.t t 9.y.= _.T.U.P.P.I.P.Y.8X#Xm.m._.]._._._._._._._._._._.",
"_.].]. X`.}.'.].].Z.R.).).)._._._._.).)._._._.).5 _.).).).).M I C C y.Q t ,.n ].'.Y.R._.).)._.'.8X]._._._._.).]._._._._._._._._.",
"3 f f g g 6 g g f f f f f f f f f h h g h f f f 3 f g f f f K 7.-.) 3.y.5.4.8.k f k f f f f f 4 6 h 3 f j z j k k h f h h g 6 8 ",
"'.).'.)._.)._.).).).).).R.).R._.).).R.Q.sX).].).'.vXvX].].`.^.K U % A 9.9.B M _.)._.'.vXbX X_._.'.'._.).].6 ).).).).).).).)._.).",
"vXzXxXzXxXxXzXxXzXzXzXxXxXzXxXzXzXxXzX[.vXxXxXxXvXvXbXqXB 9Xp I M % = . . % % 7X7XvXvXvXvXvXxXvXxXxXxXxXzX6 yX&XxXvXxXxXzXzXxXxX",
"].].'.]._._.].].].]. X]. X|.].].}.].`.!.`.].'. X#X` ) 8XCXDX9XI :.c = , + $ & 5XQ.Q.~ ! _ ` _.+X].].].].].5 ).`.].`.].].].].]._.",
"T.T.T.T.(.(.T.(.(./.(.(.(.(.(.(.(.(.Y.v.(.T.).(.v.1.9.fXlXJXPX:.,.~ J 0 +   % 7X~ 1.q.w.w.w._ n Q.[.^.(./.5 T.T.T.T.(.T.(.(.T.T.",
"jXgXgXgXgXgXgXgXgXgXgXgXgXgXjXjXkXjXkXjXjXsX6 gXN 4.x.n iXcXHX:.Q >.7.=.K U ZXC CX0.q.w.w.[ w.) CXIXHX9X1XSXSXSX5 gXgXf gXjXgXsX",
"| |  . .n._.).R.).o.|  . . .| ' ' ' ' ' ' ' 5 #.Q <.9.7XoXcXGXC Q >.=.K PXPXQ.a _ W 0.0.0. .^ 1.CXUXUXUXCXU : #.5 m.V.6 ' ' ' ' ",
"B.N.B.B.N.N.V.B.B.m.B.B.B.m.B.| | ' ' [ ..X.5 Y.V ;.8.5XXXf.bXqXIXI 1XKXSXv.8Xs ] [ [ 0.q.! ! -.ZXUXLXUXIX:.I M 5 Z.Z.6 X.X. .O.",
"+.+.+.+.+.+.+.+.+.+.+.+.+.+.4.d eXk.5.O.+.0.5 O.t v >X5X.X.XH.~.fXA K lXH.E.{.d _ ] _ _ ~ V B ZXUXUXLXIXPXHX) n 5 O.O.3 O.X.+.+.",
"kXkXkXkX7XGXGXDXGXJXGXGXGXk.Q |.XX( ( v.GXGXJXJXJX0 T 5XH.Z .X.XOX.XXX.Xj..X$Xd >.;.C m m c - 3XNXBX4X3XDX0X;.B HXJXJXHXHXJXJXJX",
"Y.U.U.Y.Q.kX'.'.'.).`.).^.V.a.XXXXXXXXXX$.).'.'.'., 8 1X~.oXu.u.H.H..Xh.h..X@Xs ;.b f = + eX].9.z.<X<X7 -.1.,.a ).).).).).).).).",
"Y.U.Y.Y.v.xX].).).R.U.) / %.s.s.W XXE.s.a./ /.).R.k.x.9.o o X o * % ( ( o % oXdXHXM 5 T + pX].'.+X*X&X: -.7.;.B ).).).(./.(.)./.",
"I.P.G.I.S.(.(.(.).).R.) ' &.f.a.V.c.v.s.d.@.R.R.R.R.x.x.* Z X x.: oXiXo qXo .XOXmXJX9XM n (.).(.).(.(.(.B 5.~ l ).(.).).`.).).).",
"GXGXGXGXGXGXGXGXFXFX5X% t 6Xt & t t y y y t AXFXFXFX8.* & k.iXiX.Xh.% @Xo o .Xj.XXdXbXW.FXGXGXGXGXGXGXGXs 9.B l 0 GXGXGXGXFXGXFX",
"_.).)._.)._._.]._.+X5XU 7.t & 6X7X& t Q.Q.4.'.'.]._.8.3X3.v.t k.OXh.H.@XoXH.j.j.j.i.s.c.)._.'.(.).'.).(.(.PXKXW.q ).(.)._.).).].",
"#X]._.'._.]._.$X X].[.K ~ a w.w.w.<.d 4.4.;.%X X}.~.<X3XQ.Q.* * oXqX; & aX.Xg.g.g.p.i.d.].#X+X X X]. X X XIX7.l.5 `.'.].'.].+X#X",
"(.(.(.).T.T.T.T.T.I.!.-.! >.W ] w.a y ] Q b c.Y./.~.BXBX1XQ.3XM Z hXIXE FX.Xg.g.g.f.f.i.c.(.(.Y.T.(.(.(./.IXc.R.5 T.(.(.).R.(.T.",
"uX5 aXaXaXaXuXpXpXpXpXuXQ.>.1.a 0.] ] N Q b KXUXUXVXBXBX1X7Xq 4XhXiX0XK s @Xf.g.g.g.j.s.c.aXaXaXaXaXaXpXB B n aXpXaXaX3 AXAXFXMX",
"r.5 r.*.`.+X].].].].]._.}.-.=.y >.>.] =.h K 8 BXBX;X:X<X<X].0 e * @Xp p s iXi.i..Xf.} a.k._.]._.]._._.) ,.1.n _._._.Y.5 #X(.T.T.",
"C.6 Z.Z.Z.A.K.A.D.A.G.G.F.D.Z.D.p b a =.K z D 2XE 8.Z.Z.A.K.I.W.H.V.MXGXmXJ.i.p.s.} n.{ P.Z.Z.Z.Z.B.,.<.q.<.n m.R.Y.`.4 `.T.L.Y.",
"*.5 &.&.&.&.&.e.&.e.&.&.e.r.#.r.&.- c I f C K 3.5.c.$.r.&.&.r.&.( / { c.c.c.$...{ { A % r.r.n.r.r.r.! <. .W n C.B.V.B.5 T.F.F.I.",
"FXFXFXFXFXGXFXGXGXGXFXGXGXGXGXGXGXGX7 7 AXGXAXnX8 FXGXGXFXFXFXFXt t / t & . % % + = , , SXGXFXFXGXGXV a q._ n GXzXAXFXMXFXFXGXFX",
"#X]. X+X+X].+X].+X].+X].].].'. X].'.].Q.zX X|. X8 #X'.].].+X|.+X3.w.c.6XZXUXY L G G S , 1X].].#X#X].m kX_ d k  X X X#X#X X X#X_.",
"I.I.K.I.U.K.I.I.U.I.I.I.U.I.I.I.I.U.I.Q.sXT.R.P.6 I.I.I.I.I.U.K.{ oXfXIXY KXL L G F S = y.I.I.I.U.I.u aX-.p n K.U.I.I.I.I.I.K.I.",
"'.'.].'.'._.).).).).).).)._.'.).'.).(.Q.R.(.(.Z.9 '.).).).~.iX8XiXGXA LX;XP =XG F S q 0Xw._._.'.).`.Q.:.M & c.).).)._.).).).).).",
"dXpXaXaX6XFXFXGXFXFXkXnXAXFXAXnXAXFXFXQ.aXuXuXuXpXuXuXuX5X7.6.ZXT KXT -XL L L F F :X9.w.w.SXAXGXGXGXGX8.1XnXMXFXAXAXFX4 aXuXuXuX",
"_.).)._.^.sXeXrXwXwXeXyXwXyXyXyXyXeXeX6X^.T.T././.T.Y.!.7.,X0XP :XL =XG L F S S 2Xm y.q.B yXyXyXyXwXwXyXrXwXeXrXwXyXwX4 /.R./.R.",
"].+X+XU.L.eX).(.(.(.T.R.T.T.T.R.T.).R.^.%X$X+X+X_.OX~.4.>.=.6.H -XF =X=XF S S 3 y.Q.Q.n.C #X).).(.).T.).).(.(.(.).T.T.- $X$X+X+X",
"].].].+X].jXaXaXaXpXpXaXpXaXpXpXpXpXyX^._.`._._._.N 4.<.q.=.1.H P -XF F D 3X= Q.c.t._ -.C aXpXaXyXyXyXyXyXuXuXuXyXyXeX- #X$X+X+X",
"6 8 g g g g f g g g 6 f f f j 8 z g 6 5 g g 6 z ! q.0.W <.Q =.V P H F NX; vXc.b.t.] -.K 4 6 g g g g f g h f j 3 8 4 4 4 f 3 f f ",
"] ] / ] ' n.#.e.B.C.7.R.' n.4 L.D.J.R.U.#X`.2.) q. .^ 0.! =.b V H H -XKX0Xv.n./ ] ,X= 5.T._.).^.8X .A.A.C.A.Z.A.5 X.Z.Z.Z.Z.....",
"N.V.C.N.C.B.B.n.B.B.n.B.m.B.c #X#X+X].P. X X_ 0.| W ! W =.V K K H 3XPX5XW.` ` 9.8.Y r $ T.R.).].eXB.n.B.C.C.N.A.5 C.n.n.m.b.m.M.",
"N.N.N.N.B.M.m.B.#.#.o.m.m.m.c C.V.C.A.C.C.* ,.w.>.! =.V V v v v 7 KXQ.9.` 2.>Xq NX2 < < c.c.c.S.S.M.m.B.B.m.N.m.6 m.N.N.m.N.m.N.",
"6 4 4 z g g g g h 6 6 8 g g 4 j f g g k x l :.~ ~ h h v l - - 7 J J M f 3 7 R r > < > > , 9 9 7 g - f f j j h h 4 8 j 4 f g z x ",
"T.Y._._.!.aXL.T.R.).Z.V.Z.J.J.J.J.I.U.x. Xz b b v m K - % U.#X#X2.J Z.Z.Z.V.< O < O 2 , q 9 q q 8.x., 7 . 5.z.R.R._.R.5 +X_._._.",
"_.A.C.]./.&X%X%X%X#X#X#X+XJ.+X+X#X+X*Xv.2.8 v h V b 8 2.#X+X#X#XOX- #X#X#X X@ # O , O 0 D J J z :XBX2X, % 8.1XsXsXsXsX4 d.n.n.d.",
"'.'.&X&X}.eX#X#X X#X+X+X+X$X&X&X$X#X$Xv.:.g b K 1.b 4 +X_.+X].'.+Xj #X]._._.L.# < r q q q q g J :XNX:X, * E <XeXyXyXyX- `._._.].",
"Y.G.F./.!.F.F.A.Z.F.F.F.F.F.F.F.I.G.F.4.n =.>.>.>.b 6 Z.C.D.Z.C.C.4 C.C.C.Z.K.M + r 1 7 , 7 7 8.;X2X2X> E x.1XY.F./.Y.3 T.I.G.D.",
"GXGXFXAXAXnXAXAXAXnX5XnXnXnXc GXFXFXGXu ~ 4.<.>.W V 9.nXnXFXAXFXAXFXGXGXFXFXMXGXAXGXnXFXnXFXAX> D 2 > Y 2X<XnXAXGXGXFXGXFXAXMXAX",
"#X X]. X X X X#X X].6XkX|.`.v pX_.].'.s ! 1.! C c 9 Q.xX#X].].#X]. X X X#X X X X]. X X X]. X X}., > 2 , <X~.].].]. X X].]. X].].",
"I.I.K.K.K.I.I.K.I.I.[.sX).T.m wXU.I.B ;.,.4.=.k l T.Q.zXK.K.K.I.K.K.K.K.K.K.K.K.I.K.K.K.K.K.P.`.T > > , E v.K.K.K.K.K.K.K.K.K.I.",
" X'.].].].]._.].].'.!.'.).'.m )._.L.v.9.,.~ c z `.).Q.].).)._.'.].].'.].].).'.).'.]._.].].].].Z < < 1 O E ^.].].'.].'.].].).).(.",
"&X6 yXyXuXuXuXaXyXyXyXuXyXpXyXyXuXdXHX7XI k 3 ~.yXyXyXuXuXaXuXuXuXuXpXuXuXuXyXuXyXyXrXyXuXuXyXM > < @ Y z.iXuXyXuXyXuXuXuXuXuXtX",
"[ 5 +.O.O.O.O.O.X.X.X.X.X.X.$ # [ ` UXIXU e X...X.....*.n.$.#.O.O.O.O.O.O.O.O.O...X.X.$.#.O.O.: > > < R {  . .X... ... .X..... .",
"g 6 x z x h z g g z f 4 h   < 1 UXUXIXBXe v z j z z 8 j 4 j j j k j j 4 4 4 9 j 8 8 8 z 8 8 8 z e r q 8 - j k z x k j j j j j k ",
").).).).E.R.R.R.e e e ; ; r < @ UXUXBXz.L.E.)._.].).R.).).R.).).).R.R.).R.).).).).).R./.3 `.).).H.5.k.v.).).).).).R.).R.R.).R.R.",
"rXrXrXwXyXyXrXx.# ; 2 @ O < r < LXNX<X~.wXwXwXwX&X&XwXwX&XwX*X&XrX&XwX&X%X&X&X&XwXeXwX&X4 rXwXyXpXyXeXyXyXrXrXrX&X&X&X&XwX&X&XwX",
"x h h x x x z x UXX e @ w O < w 2 2XJ k x k h h h h z k k x k x x x x x x x x g x z z g 5 z z x g z q x z k h x x g g h j j j l ",
" X X X}.8XnX$X8.LXLXz.X $ $ $ $ X $ 1 |.$X|. X|.|. X#X].%X%X$X#X X|.|. X|.5XvX|.|.|.|.#X$X#X%X|.%X%XQ.vX|.|.|.#X#X%X$X|.|.|.|.|.",
"%X$X$X$XgXnXaXaXz.z.9X9X7X7X3.{ [ { :.vXvX+X+X#X%XzXxXxX+X+X+X$X$X$X$X+XwX6XbXbXvXvXvXvXxX+X X#X#XzX[.vXvXxXxXvX+X+X+X$X#X&X&X&X",
"MXFXnXnXfXGXnXAXFXhX1XvXx.vX` !.{ W.2.vXbXMXbXbXMXnXnXnXMXbXzXzXbXbXbXbXbX6XnXmXMXMXbXMXnXMXbXbXnXnX[.bXnXnXnXnXnXnXwXbXnXbXbXbX",
"tXtXuXtXtXtX# # @ @ @   $ o . % . * . . $ , < # # @ $ $ # # # # $ # # $ # @ @ # # $ $ $ O + o $ $ $ + o $ o X $ $ X $   uXyXuXyX",
"V.V._._._._._.XXd.c.5. Xm.m.d.d.d.d.V.d.V.d.m.V.6 m.V.m.d.V.V.d.m.m._._.OXR.Z.Z._._.V.C.m V.X.X.....X.X.X. . . . .| | 3 _._.E._."
};
