/* XPM */
static char *result[] = {
/* columns rows colors chars-per-pixel */
"64 64 254 2 ",
"   c #02030C",
".  c #080509",
"X  c #130001",
"o  c #1C0002",
"O  c #13020C",
"+  c #19040A",
"@  c #020414",
"#  c #0B0314",
"$  c #030A14",
"%  c #01051B",
"&  c #07091A",
"*  c #0B0B1A",
"=  c #160617",
"-  c #121418",
";  c #171419",
":  c #240001",
">  c #2B0001",
",  c #23010C",
"<  c #2C0309",
"1  c #330000",
"2  c #370407",
"3  c #3C0000",
"4  c #31170E",
"5  c #260515",
"6  c #370717",
"7  c #391717",
"8  c #050A22",
"9  c #0E1128",
"0  c #171A26",
"q  c #3C0C25",
"w  c #360929",
"e  c #300D2C",
"r  c #3B0C29",
"t  c #2B1928",
"y  c #3B1228",
"u  c #262226",
"i  c #30292F",
"p  c #252836",
"a  c #363439",
"s  c #430000",
"d  c #440704",
"f  c #4C0100",
"g  c #4B0E0F",
"h  c #550401",
"j  c #461518",
"k  c #4B121D",
"l  c #551519",
"z  c #6E140D",
"x  c #5C2018",
"c  c #6E230B",
"v  c #430B25",
"b  c #4A0C27",
"n  c #430C29",
"m  c #441225",
"M  c #4A1222",
"N  c #4C1E24",
"B  c #44122A",
"V  c #4A112B",
"C  c #53152B",
"Z  c #482628",
"A  c #4E2B33",
"S  c #572638",
"D  c #4A393B",
"F  c #75262A",
"G  c #7A2A2A",
"H  c #682A39",
"J  c #713031",
"K  c #504439",
"L  c #794033",
"P  c #1E2C45",
"I  c #293746",
"U  c #31354E",
"Y  c #363A4A",
"T  c #4E3248",
"R  c #483A4A",
"E  c #663444",
"W  c #763A45",
"Q  c #2C444D",
"!  c #3A4356",
"~  c #584748",
"^  c #474857",
"/  c #514C54",
"(  c #704C50",
")  c #6E655A",
"_  c #51586A",
"`  c #6A5C6E",
"'  c #556670",
"]  c #596376",
"[  c #666777",
"{  c #6E6C71",
"}  c #796574",
"|  c #8B3218",
" . c #8B3927",
".. c #943A26",
"X. c #8C2F30",
"o. c #863838",
"O. c #A43834",
"+. c #9C4D1F",
"@. c #914A37",
"#. c #BB552D",
"$. c #AD4F30",
"%. c #C25B2F",
"&. c #C55E31",
"*. c #C9612E",
"=. c #CA6332",
"-. c #D76937",
";. c #DD7A39",
":. c #E3783D",
">. c #913842",
",. c #894848",
"<. c #954546",
"1. c #925150",
"2. c #AA534B",
"3. c #B85748",
"4. c #90695A",
"5. c #A76956",
"6. c #B66B57",
"7. c #AC7359",
"8. c #975A65",
"9. c #906E6B",
"0. c #AF6F6B",
"q. c #C45C51",
"w. c #C96658",
"e. c #CB7450",
"r. c #DA7A56",
"t. c #E67844",
"y. c #EB7D45",
"u. c #E77250",
"i. c #CF7367",
"p. c #E47E65",
"a. c #E6843D",
"s. c #A1866E",
"d. c #B38A72",
"f. c #DB8552",
"g. c #ED8143",
"h. c #EA8546",
"j. c #EC8C43",
"k. c #F28C46",
"l. c #F08248",
"z. c #F28D49",
"x. c #EC9347",
"c. c #F3934C",
"v. c #F59A4D",
"b. c #F79A4C",
"n. c #EA8D5A",
"m. c #F69C51",
"M. c #F99C52",
"N. c #F69958",
"B. c #FAA24D",
"V. c #F5A554",
"C. c #FCA552",
"Z. c #F9A757",
"A. c #FDAC5D",
"S. c #FDB15E",
"D. c #D98C67",
"F. c #CE8E73",
"G. c #D79476",
"H. c #E4976B",
"J. c #F0906D",
"K. c #E89878",
"L. c #DBA777",
"P. c #F4A963",
"I. c #FEAD62",
"U. c #FEB463",
"Y. c #FCBA65",
"T. c #F6B36A",
"R. c #FEB669",
"E. c #FCBC6B",
"W. c #EBAE74",
"Q. c #E8A779",
"!. c #F8B473",
"~. c #F7BD73",
"^. c #FABE73",
"/. c #FDC26C",
"(. c #FDC373",
"). c #FBC478",
"_. c #FFCC7D",
"`. c #FFD17E",
"'. c #5C7286",
"]. c #676D86",
"[. c #71778A",
"{. c #867686",
"}. c #B07882",
"|. c #6E8089",
" X c #8F8D91",
".X c #888995",
"XX c #988999",
"oX c #B88886",
"OX c #AB908D",
"+X c #ABA59A",
"@X c #879AAA",
"#X c #9694A4",
"$X c #A39BAA",
"%X c #93A7AC",
"&X c #98AAB7",
"*X c #9CB4BB",
"=X c #ACB0B0",
"-X c #A4B3BC",
";X c #C89889",
":X c #D29289",
">X c #D1AC90",
",X c #E3A28D",
"<X c #E8B883",
"1X c #F2B38A",
"2X c #D1B6AA",
"3X c #BBC1BF",
"4X c #E8C18B",
"5X c #FECD83",
"6X c #FDCA88",
"7X c #FFD284",
"8X c #FCDA86",
"9X c #FED48A",
"0X c #FDDA8A",
"qX c #F6C699",
"wX c #FED691",
"eX c #FED993",
"rX c #FCDC9D",
"tX c #F7CBA7",
"yX c #FACDA2",
"uX c #E3D5AA",
"iX c #FCD4A6",
"pX c #F3D8B3",
"aX c #FEE5A8",
"sX c #FEE6AC",
"dX c #FEE6B4",
"fX c #FEECB4",
"gX c #FEEDBA",
"hX c #FEF0BD",
"jX c #9CB1C3",
"kX c #A7B6C6",
"lX c #B6BECB",
"zX c #CDBAC4",
"xX c #BBC5C9",
"cX c #B9C6D0",
"vX c #CDCCCD",
"bX c #CAC8D3",
"nX c #E6DBCB",
"mX c #FCDDC4",
"MX c #EEE3C4",
"NX c #FDE3C5",
"BX c #FFEEC2",
"VX c #FFE5CA",
"CX c #FFECCD",
"ZX c #FEF3C4",
"AX c #FFF3CA",
"SX c #FFEDD3",
"DX c #FDE7D9",
"FX c #FFF3D9",
"GX c #D3DCE6",
"HX c #FAF7EA",
"JX c #FFEDFA",
"KX c #EFF4F0",
"LX c #FBF9F8",
"PX c #FDFDFC",
/* pixels */
"v.v.c.v.v.v.v.N.N.v.M.M.M.M.M.m.m.m.B.m.m.m.m.V.C.N.F./.B.C.C.Z.Z.q m.m.m.m.M.M.M.c.M.b.m.M.M.M.b.M.M.M.v.m.M.v.M.m.m.r N.m.m.m.",
"y.t.y.t.t.t.t.;.r.h.y.y.y.y.y.l.l.l.l.l.l.l.l.l.l.l.6.a.y.y.g.l.y.v u.y.y.y.y.t.y.y.y.y.y.y.a.g.y.y.l.:.g.t.y.y.g.y.g.r t.:.t.t.",
"CXCXVXVXNXNXMXVXNXNXoXtXtXtXtXtXiXpXpX0.mXmXmXmXmXmXpXVXNXVXNXVXVXVXVXVXSX0.tXtXtXiXiXiXS mXmXmXNXVXF.mXmXVXNXVXVXNXVXVXVXVXNXCX",
"F G G G F F F F F G W !. . . . . .....,.^.G G F F F F F F F F G G F G G X.( V. . .@.....C 6XI.A.I.T.i.6XG F F F F F J F F J G G ",
"wX9XeXeXeXeXeXeXwXeXQ.).m.m.c.M.M.M.C.f._.eXwXwXwXwX9X9X9X9X9X9XwXeXwXeXeXQ.n.j.c.c.M.M.J wX9X9X9X9XH.eX9XeX0XwX9XwX9X).wXwXwXwX",
"9X7X7X7X9X9X7X0X7X7XK.A.c.z.z.z.k.k.z.r.5X7X7X7X9X6X9X9X5X9X9X9X7X7X7X7X9XH.c.c.z.k.l.k.>.R.R.R.R.R.D.5X5X7X7X7X9X9X9X9X7X9X9X9X",
"M M M M M M k k M k m j k l l l l j l M M M M k M k k j k k M j M M j k k q v k k k k k r V M M M v M M M k k k M k k k k M M b ",
"7X7X7X`.Q.9X7X`.7X7X7X9X7X7X`.7X7X`.`.`.`.`.`.`.r 7X7X`.5X7XD.7X0X7X7X_._.`.`._.7X7X7X7X7X7X7X6XiX9X9X9X7X7X7X7X7X`._._.7X`.7X`.",
"/.V.V.E.T.-.;.:.a.a.v././.Y.E.Y.;.;.;.;.;.:.;.;.r a.;.;.;.;.X >X2XoX> v.E./.(././.Z.(.V.(.(.(.^.qX(.(.(.E.Y.Y.;.;.:.;.a.;.a.;.;.",
"V.V.U.Z.Z._./.(././.v.V.V.V.V.E.Y.Y.E.E./.Y.Y.Y.y /.E.Y.~.9.d.dXBX$.D.1.F.Y.Y.9.s.V.V.V.C.M.V.A.1X/.j.j.E.E.Y.Y.Y.Y.Y.Y.E.Y.Y.E.",
"E.E.E.^.T.)./.E.E.v.S.U.Y.U.Y.Y.U.E.Y.U.S.U.U.U.y Y.Y.Y.!.oX2 d h K.n.$.1 R.W.E.Y.  a Y.Y.Y.Y.Y.1XE.Y.Y.Y.Y.Y.Y.Y.Y.Y.Y.Y.Y.Y.E.",
"q v r v n r v n v v n v v v v v v b b v m v v v w q n m d d 3 G.H.J.l.p.W XX/ $ - - [.( n v v q q b v v v y M j M M v v v v q v ",
"I.Y.U.Y.U.U.U.U.S.S.U.U.A.S.U.U.U.U.S.F.eXY.Y.Y.Y.dXdXE.d 0.1 1.$.f.r.3.L {.s.Q a $ %XzXfX/.Y.Y.. a i i i   /.Y.D L.U.U.Y.U.U.U.",
"sXsXsXiXsXsXaXsXaXsXsXsXsXsXsXaXsXsXsXQ.dXsXsXaXsXsXdXdX1 5.1 8.6.3 f @.: O `  X|.%X#X=XsXaXfX. fXaXaXaXaX  ^ ~ aXOXsXsXsXsXsXaX",
"E.E.E.E.E.E.Y.E.E.E.!.E.E.E./.E.E.E.Y.H.T.E./.~.>XL.G.2 < : ,.H >.<.@.J : X OX X X0 #X+ 4.<.E.+ ^.i /. X<X* ^ E.d.).Y.E.Y.E.E.E.",
"A.A.A.A.I.I.I.I.I.U.I.I.I.T.I.I.I.A.A.D.P.A.S.d.iXFX1Xd.4 o 1 3 s 3 3 8.4.9.( ( ) _ - : :X,X4.o 9.6X=X1X1X  <XL.L.S.I.I.I.I.A.A.",
"iXiXyXyXyXyXyXyXtXyXtXyXyXyXtXiXtXyXqXyXyXiXT qXD.L.;X> Z > :X,X3 3 F.DXHX2 5.1 : O + 1 VXr.:XqX4 - . - - R nX; e iXyXm yXyXyXiX",
"%.%.&.&.h.Y.U.U.Y.&.%.%.&.&.%.%.#.%.#.%.#.< 0.r.h f 1 > ,.FXNXQ.G.2.6.h CXG.c :X0.: > J $.| X.N.dXt.:.:.D.+XO ;.e k.x.w #.#.#.#.",
"k.k.j.z.k.k.z.c.z.j.z.z.z.z.z.%.%.#.%.*.=.o X.6.O.i.<.2.2.f K.$. .2.e.p.K.h D.f 1.d X.3.r.q.5.e.dXR.R.U.XXu ;.-.r B.x.r =.=.*.-.",
"-.-.-.-.-.-.-.-.-.-.-.-.-.-.-.-.-.-.q.4 7 2 3 h X.X.| h q.p.h G d @.q.r.w.z 5.s <.s | z q.$.<.r.,XM.N.N.9.N.N.N.w -.-.r -.=.-.-.",
"iXiXsXiX>XSXCXAXCXSXAXAXAXAXAXAXAXAX4 FXFXCXi.@.> ,.K.3.h o.@.> : 3 3 2.2.G @.> >.3 C 2.d J J DXSXSXSXSXnXSXSXSXSXSXSXSXSXSXSXSX",
"A.V.Z.Z.D.iXR.R.R.U.R.Y.T.I.U.U.Y.;XoXSX<XK.6.2 SXtXgXJ.i.2 DXFXAX>X3 g 1 HXFXDX9.< < < 9.HXJX9./ Y.E./.<XY.U.U.U.U.R.U.Y.Y.Y.U.",
"Z.Z.V.Z.n.sXR.U.U.U.P.U.I.U.Y.Y.< 2X;X1 h ..c D.1X+.N.N.z G.iXBX1Xe.0.< 4 7 Z Z D D A D D ~ wXs.4.) ) ) <XY.Y.T.T.U.T.U.U.P.U.S.",
"V.V.V.V.n.P.U.I.I.U.Y.I.U.U.S.Z : s > F.L.D.3 e.n.$.n.+.| VXQ.$.n.6.4 nXvX2XzXO PXKXPXLXHXvX{ { [ [ { [.Q.Y.I.I.I.U.I.U.U.U.I.U.",
"AXAXAXAXAXAXAXZXAXZX;XZXZXAX. MX: ;X1 0.f f h w.p.p.h $.f G.J.| D.: OX/ X O # # PXlXKXHXPXvX. $ $     $ MXAXAXZXe AXAXAXAXAXZXAX",
"Y.Y.Y.U.Y.Y.E.E.E.E.F.aXU.U.* >X: J d @.>.>.3 2.$.q.@.o.g <.@.z > JX. ` ( = = 8 LXPX=XLXLXvX=X*X&X-X&X%XQ.R.Y.Y.e Y.U.U.Y.U.U.Y.",
"(.E.Y.Y.E.Y.Y.(.E./.Q.iXE.~.H >XX Z j 1.0.8.: S Z 1 N C 1 ,.S V ( XX5 t S W 8.= PXHX3XHXLXvX=X%X-X&X*X-X4X)././.e E.R.R.E./.(.(.",
"I.I.I.I.A.A.A.A.A.C.G.U.U.Y.H OX0 ; 5 > 2 < 5 = 5 5 5 , + 5 w = = XX= e o > , # LXFX=XLXHXvX*X*X-X*X' -XL.S.A.S.e I.I.I.I.A.A.A.",
"9Xe eXeXeXeXeXwXeXwXwXwXwXeXeX' ].[ {.].8.} } } 8.9.8.} { ` } ` } $X# T A T T   KXHX=XKXLXGX&XjX'.jX' *XuX0X0X0XeXeXeXw BXZXhXhX",
"t.w t.:.E./.R.R.E.E.E.E.E.Y.Y.` = = T + O E T , ( g > ( o : : 7 ( OX, E ( + i   HXHX=XLXLXcXkXjX@X&X-X&XL.T././.Y.Y.Z.w ~.I.I.A.",
"c.w v.m.v.m.m.z.M.c.M.M.C.M.M./ + W H 1.1.,.E g 2.z 1.2 5.h c :X( }.1 1.6.l H , LXLX=XLXKXxXjXjX|.*X&X&XL.a.a.j.S.Z.T.q W.Z.V.Z.",
":.r :.;.;.:.:.t.t.t.:.-.t.-.t.9.< ,.@.3 3 3 1 0.i.z i.2 $.q.K.tX0.;X3 0.6.i.H 5 HXHX=X%XKXvX%XjXjX&X*X&XD.t.z.z.c.x.c.y Z.M.N.Z.",
"AXZXZXZXZXZXZXZXAXAXAXAXAXAXAX X= H j 3 0.>.E < d 1.0.> c 2.H.D.9.oX: > > 1 y X PXLX-X#XLX3X[ jXjX|.' kXnXAXZXZXaXBXZXZXZXZXZXZX",
"(.E.E././.^./.E./.E.E.Y.E.E./.s.O = 5 6 l l > 5 V N j j g g x x 7 +XO T i X i = PXPX*X*XLX3X%X*X*X&X_ I d.E.(.(./.~.^.(.E.(.E.E.",
"C.C.C.C.C.C.C.V.C.C.C.C.V.C.C.!.Z.C.C.PXJXJXJXJXJXLXPXPXJXJXLXJXLXXX% ].` { [ % LXLXcX%XPXvXkXjXjX%X! _ ~ V.C.C.V.V.C.C.C.C.C.C.",
"E.Y.R.R.R.Y.R.U.U.U.Y.U.Y.Y.U.* @ . o : X = o o o X X X + = O O X #X# # =   = # @X|.|.Q $X X[.[.'.%X_ ~.S.U.U.R.Y.Y.U.U.U.U.U.Y.",
"eXeX0XeXL.AXAXBXZXZXpXgXgXZXBX{   o ....2 A > : F.+.2 @.j : o N ( oX1 E 1 : y + LXLXcX' PXGXkXcXcX|._ BXgXBXfXBXZXBXZXq eX0X0X0X",
"/.U.U.E.H.rX7X9X7X5X6X5X6X9X9X{   7Xi.i.J o g F.=.f.f.i.o.s s F.,.d.1 0.0.0.< X LXLXcX' LXGXcXcXkX_ $ 5X9X6X9X9X9X9X5Xn P.A.P.I.",
"E./.E.V.V.6XU.I.S.S.S.S.A.S.S.& 9.9.5.5 p T W x H.f.r.#.| p.H.| 5.d.: 8.F Z 7 X bXGXjX' cXcX@X|.@XP 9 U.I.I.S.U.A.I.Y.6 ).(././.",
"E.E.^./.E.iXeXeX. * # *   & & & $ % U ! _ & + ;X;X2 i.s 2.$.G.L d.OX, , < 0.T = &XjX[.! |.@X'.'.|.8 _ eX0XwX0X9X9X9X5X6 (.(./.(.",
"v B v v n r v # _ p [.].].].% U @ @ &X! P 8 @ # . X X X o o + . # #X% = = = # 9 8 8 8 8 % & 8 % 8 % / b v m q y y q v r r v q v ",
"$.$.$.$.#.a.t.% 9 9 9 8 0 & % ^ 8 cXKXkXU ` [.XX9. X{..X.X X{. XXX#X9 R T T / T U ! U U Y I P ! U ! Y b.c.b.b.B.w =.b.m.v.v.*.*.",
"x.c.c.z.z.c.c.$ _ _ _ ] _ 8 8 _ @ cXPXbXA = o > < < < 5 X > 1 > , XX# 5 6 < > 5 # % 8 8 U.U.Y.!.6X@ * z.s.. $ . * @ & * g.g.j.k.",
"z.h.j.k.k.z.l.j.p U '.].'.P P ` & xXPXvXT H J <.i.i.>.6 S 1 6.i.,.OXo ( >.8.J W = R p U x.v.+ O ~ 8 ) c.4.G.H.G.( G.[.a j.k.k.h.",
"r y v v n n n n u ^ ].].].'.] ] % bXPXzXC o.X.w.i.| z h F f .. .0.OXo }.<.1.8.H X i p 9 r q o E T % _ k ~ u ; k B * 9 & m y B V ",
"A.V.Y./.H.eXZ.A.R / 0 I P P I _ 8 cXPXzXS H F 2.h q.w.O.h 2.r.w.< oX> > 3 s F 1 O ^ p Y C 7X5 S ( % ` I.s.. - a #X*   % /.Y.Y.Y.",
"Y.c.z./.U.K ) oX( . [ ! '.P ' ' $ cXLXbXA E 6 , 5.2.X.X.C >.O.$.,.}.= A o < 6 ( # R P U J aX+ E )   ` rX>X- / / / p @ @ a.g.g.a.",
"E.E._.`.).2XpXFX>X;XA U _ U ' I $ [ ] ^ i O = O k l l C 6 5 l l S OX# = t t y O % ] ^ R $ >X5 t i   D qXd.2X+Xy ~ t @ A s.Y.Y./.",
"N.Z.N.Z ,XNX>XFX>X5.2 Z ` U 8 &XM.M.M.xX#X$X=XPXLXLXLXJXJXJXJXJXPXJX&X[.[ [ ` [ ] ] ] ] [ [ ] [ [ ` : >XAXdX1Xd.1 < = } ( Z.C.M.",
"AXZXhX4.K.1XG.3 5.s 5.W R U % 8 $   @ $       . . # .   *   - @ % 8 # & @ & @ @ @ $ @ % % @ %   @ O 1.mXW.W.H.e.3.( HXAXnX- ZXBX",
"^.^.^.:Xz p.K.f 5.s 2.< Y U U pXqXqX>X  $ /.E.^.u   $ .   @ qXqXqX    $ ^.^.^.^.^.^.E.^.^.<X).uXVX, 3.p.r.H.J.h O.X.vXLXGX@ E.E.",
"C.b.b.0.q.w.z 2.s 3 0.y Y I % @ GX.X$ . B.C.C.B.u . * @   @   bXbX. . ~ B.B.B.B.C.B.B.B.  C.W.|.% + 2.u.r.f 3.w.w.z ~ ^ U % B.B.",
"^.E.Y.Z @.O.>.f <.1.X - Q Q & & |.# p a R.Y.Y.Z.u $     # . * { - a p ~ E.R.R.Y.R.Y.Y.E.. ~  X- @ a > >.3.u.O.w.o.: bXKXGX$ S.U.",
").q 8X>X> F F o.s E t I ' Q P 0 0 0 ! u 0X9X9X7X8X{   . 0 s.0 * 0 I 0 >X0X0X9X9X9X9X9X9X+X) - 0 I 0 6 W >.X.z o.: O %XkX|.$ 0X8X",
"#.r e.-.-.o W W : O D 4.4.) 4.* ~ D ; 9.7.5.7.5.7.7.5.d.d.0.; ~ ~ ~ s.7.7.7.7.7.7.7.7.7.7.0.D ~ R t Y O 6 k J > O # e.e.7.. &.*.",
"n n v b n n n q n n v m M j m q M V V r B B m B M m y m y m N m m y m 7 y y m B y y y B y B y B V m r q v n B V m V m B m m m m ",
"U.U.U.U.U.U.U.U.U.S.U.S.U.S.U.S.S.U.S.S.S.U.U.Y.Y.U.S.U.U.S.S.Y.U.U.S.U.S.U.U.U.U.U.S.P.6 !.U.U.U.U.U.U.U.U.S.U.S.U.U.S.S.S.S.U.",
"7X7X7X9X9X9X9X9X7X7X5X5X_.5X5X5X5X6X_.5X5X`._.5X5X_.5X_.`.7X`.`.`._.5X_.)._._.5X6X9X_.5X6 9X5X9X9X9X9X9X7X9X7X7X_._._._.5X_._.7X",
"V b b b b b C b b V V C V V B B V V V V C b b b b b b M m B 7 y V V V V B n V n B V B y r B B n n V B B B V n V V B n n m m m B ",
"~.^.~.~.1XgX~.~.~.~.~.~.^.^.E aX^.).~./.~.).(.~.).~.).^.).(.)./.~.~.~.^.~.:XsX^.~.~.~.).).).).).).).F.fX~.~.~.).(.~.).~.~.~.~.E.",
"_.(._.(.tXBXeXrXrXrXiXrXrXiX1.gXaXsXsXfXfX/./.(.(.aXsXsX/././.`./.`.`.(.7X,XsXsXsXsXsXsXsX(.(.(.~.aXQ.sXfXsXsXsX/././.)._._._._.",
"hXhXhXgXtXBXgXgXhXZXgXgXgXgX1.fXfXhXfXgXgXfXfXgXgXhXgXgXhXhXaXaXfXsXfXfXfX,XgXhXgXhXhXgXgXgXfXfXgXfXQ.gXfXgXgXgXgXfX9XfXfXfXfXfX",
"0X0X8X8X0X8X0X0X8X0Xd.8X0X0X0X0X0X0X0X8X8X8X0X8Xq 8X0X8X`.`.8X`.`.8X`.`.8X8X8X8X`.8X8X8XH 8X8X8X0X0X7X8X0X0X0X0X0X0X8Xq 0X0X8X9X",
"x.x.U.Y.Y.Y.Y.Y.;.a.5.(.j.a.j.a.a.a.x.x.a.x.j.x.r x.x.j.x.x.x.a.x.x./.Y.Y.Y.v.v././.v.v.S n.=.*.*.*.=.=.=.=.=.=.#.*.%.w Y.Y.S.Y."
};
